<svg width="34" height="35" viewBox="0 0 34 35" fill="none" xmlns="http://www.w3.org/2000/svg">
<path d="M18.3954 26.5734C18.3954 26.5734 20.3229 26.544 22.024 22.6453C22.5283 21.4894 22.6795 20.4052 21.9515 20.2964C20.487 20.0778 20.2892 25.6416 15.5668 24.4197C12.2347 24.7587 15.2311 25.7473 15.4681 25.8104C15.7052 25.8735 17.28 27.1004 17.28 27.1004L18.3954 26.5734Z" fill="white"/>
<path d="M14.7676 24.3642C14.7676 24.3642 16.6898 24.2187 18.1526 20.2241C18.5862 19.0398 18.5276 18.4115 17.7944 18.3469C16.3194 18.217 16.6017 23.3196 11.8142 22.3848C8.50868 22.9242 11.5592 23.7301 11.7995 23.7789C12.04 23.8278 13.6857 24.9573 13.6857 24.9573L14.7676 24.3642Z" fill="white"/>
<path d="M20.5112 26.7293C20.5112 26.7293 21.7952 27.1644 23.2824 25.3137C24.0723 24.3307 24.2769 23.2021 23.5746 22.9819C22.1616 22.5389 20.7658 26.3703 17.4215 26.1891C14.0771 26.0078 16.0908 27.3258 16.3154 27.4251C16.54 27.5244 19.0931 27.7494 19.0931 27.7494L20.5112 26.7293Z" fill="white"/>
<path d="M15.6682 24.4448C15.6682 24.4448 16.092 25.7986 18.406 26.4968C20.7201 27.195 22.553 25.168 23.8926 25.5734C25.2322 25.9788 23.7868 28.2408 20.7318 29.0162C17.6768 29.7917 13.6581 28.5932 11.1671 26.6427C8.99113 24.9389 6.38506 24.6661 6.86013 26.9506C5.43736 27.3574 4.96289 25.0446 4.96289 24.9389C4.96289 24.8333 4.96289 23.3878 4.96289 23.3878L7.00746 22.295L9.93332 22.7534L13.6346 23.9769L15.6682 24.4448Z" fill="white"/>
<path d="M15.6681 24.4449C15.7345 24.3693 15.8682 24.3019 16.0989 24.2653C16.7723 24.1582 18.3494 23.995 18.775 23.4886C19.0962 23.1065 19.0492 22.4412 17.803 22.1269C16.5568 21.8127 14.5817 22.0548 13.8091 21.6521C13.232 21.3515 11.7864 20.3903 10.4972 19.7336C10.0602 19.5109 8.80208 18.5946 6.76344 19.0454C4.08809 19.3954 3.273 18.5196 3.25604 17.151L1.89722 19.6627L2.77892 23.2696C2.77892 23.2696 4.58646 24.336 4.91074 25.1795C5.55643 25.1341 6.3656 26.8389 6.86009 26.9507C6.04847 24.7759 7.37256 23.2473 10.2504 23.977C14.7968 25.1296 15.6677 24.4453 15.6681 24.4449Z" fill="white"/>
<path d="M15.6045 8.74414C15.6045 8.74414 13.677 8.77357 11.9759 12.6723C11.4716 13.8282 11.3204 14.9124 12.0484 15.0211C13.5129 15.2397 13.7107 9.67591 18.4331 10.8978C21.7651 10.5588 18.7688 9.57026 18.5317 9.50713C18.2947 9.44399 16.7199 8.21716 16.7199 8.21716L15.6045 8.74414Z" fill="#FF7827"/>
<path d="M19.2322 10.9534C19.2322 10.9534 17.3101 11.0989 15.8472 15.0934C15.4136 16.2777 15.4723 16.9061 16.2054 16.9706C17.6805 17.1006 17.3981 11.998 22.1857 12.9328C25.4912 12.3934 22.4407 11.5875 22.2004 11.5386C21.9601 11.4898 20.3142 10.3602 20.3142 10.3602L19.2322 10.9534Z" fill="#FF7827"/>
<path d="M13.4888 8.58827C13.4888 8.58827 12.2047 8.15325 10.7176 10.0039C9.92764 10.987 9.7231 12.1155 10.4254 12.3358C11.8384 12.7788 13.2342 8.94729 16.5785 9.12853C19.9229 9.30978 17.9091 7.99182 17.6846 7.89252C17.4602 7.79341 14.9069 7.56824 14.9069 7.56824L13.4888 8.58827Z" fill="#FF7827"/>
<path d="M18.3317 10.8727C18.3317 10.8727 17.9079 9.51898 15.5938 8.82077C13.2797 8.12256 11.4468 10.1496 10.1072 9.74415C8.76759 9.33875 10.213 7.07677 13.2681 6.30133C16.3231 5.52588 20.3417 6.7243 22.8327 8.67487C25.0087 10.3786 27.6148 10.6514 27.1397 8.36694C26.6646 6.08248 29.0369 10.273 29.0369 10.3786C29.0369 10.4843 29.0369 11.9297 29.0369 11.9297L26.9924 13.0225L24.0665 12.5642L20.3652 11.3406L18.3317 10.8727Z" fill="#FF7827"/>
<path d="M18.3316 10.8727C18.2652 10.9483 18.1315 11.0157 17.9008 11.0523C17.2273 11.1594 15.6503 11.3226 15.2247 11.829C14.9034 12.2111 14.9504 12.8764 16.1967 13.1907C17.4429 13.5049 19.418 13.2628 20.1906 13.6655C20.7676 13.9661 22.2133 14.9273 23.5024 15.584C23.9395 15.8068 25.1976 16.723 27.2362 16.2722C29.9116 15.9222 30.9106 16.8313 30.7436 18.1666C31.0217 19.7672 32.1025 15.6549 32.1025 15.6549L31.2208 12.048C31.2208 12.048 29.4132 10.9816 29.0889 10.1381C28.4432 10.1835 27.6341 8.47871 27.1396 8.36694C27.9512 10.5417 26.6271 12.0703 23.7493 11.3406C19.203 10.188 18.3322 10.8723 18.3316 10.8727Z" fill="#FF7827"/>
<path d="M15.7728 34.489C15.7728 32.81 14.6788 31.3179 13.0695 30.839C7.38918 29.1483 3.24671 23.8885 3.24671 17.6588C3.24671 11.4293 7.38918 6.1695 13.0695 4.47864C14.6788 3.99968 15.7728 2.50763 15.7728 0.828613C7.02424 1.45796 0.120605 8.74983 0.120605 17.6588C0.120605 26.5678 7.02403 33.8596 15.7728 34.489Z" fill="white"/>
<path d="M18.2273 0.828613C18.2273 2.50763 19.3213 3.99968 20.9306 4.47864C26.6109 6.1693 30.7534 11.4291 30.7534 17.6588C30.7534 23.8885 26.6109 29.1481 20.9306 30.839C19.3213 31.3179 18.2273 32.81 18.2273 34.489C26.9759 33.8596 33.8795 26.5678 33.8795 17.6588C33.8795 8.74983 26.9759 1.45796 18.2273 0.828613Z" fill="#FF7827"/>
</svg>
