<svg width="483" height="416" viewBox="0 0 483 416" fill="none" xmlns="http://www.w3.org/2000/svg">
<path d="M241.2 101.828L196.183 116.702C196.183 116.702 191.55 128.972 200.794 132.75C210.038 136.528 242.809 131.921 242.809 131.921L241.2 101.828Z" fill="#70AEE5"/>
<path d="M253.235 174.344H262.406C272.494 174.344 280.748 182.598 280.748 192.686C280.748 202.774 272.494 211.027 262.406 211.027H253.235C243.147 211.027 234.893 202.773 234.893 192.686C234.893 182.598 243.147 174.344 253.235 174.344Z" fill="#3E3D5E"/>
<path d="M252.823 376.018C252.823 376.018 255.243 378.411 252.823 390.376C252.823 390.376 229.135 394.881 213.852 390.376C213.852 390.376 212.515 378.974 225.314 377.426C238.113 375.878 252.823 376.018 252.823 376.018Z" fill="#4A94FF"/>
<path d="M213.852 390.376C213.852 390.376 230.79 394.599 252.823 390.376" stroke="white" stroke-width="3" stroke-miterlimit="10" stroke-linecap="round" stroke-linejoin="round"/>
<path d="M247.405 200.962C247.405 200.962 234.83 285.335 243.484 377.279" stroke="#3E3D5E" stroke-width="16" stroke-miterlimit="10"/>
<path d="M281.218 378.537C281.218 378.537 283.638 380.93 281.218 392.895C281.218 392.895 257.53 397.399 242.247 392.895C242.247 392.895 240.91 381.493 253.709 379.945C266.508 378.396 281.218 378.537 281.218 378.537Z" fill="#83C1FF"/>
<path d="M242.247 392.895C242.247 392.895 259.185 397.118 281.218 392.895" stroke="white" stroke-width="3" stroke-miterlimit="10" stroke-linecap="round" stroke-linejoin="round"/>
<path d="M266.944 202.314C266.944 202.314 263.428 288.782 272.082 380.727" stroke="#3E3D5E" stroke-width="16" stroke-miterlimit="10"/>
<path d="M280.088 188.132C273.764 190.571 262.246 193.921 248.352 191.701C243.397 190.909 239.113 189.564 235.581 188.132C235.581 162.838 235.581 137.544 235.581 112.251C235.581 105.356 241.171 99.766 248.066 99.766H267.603C274.498 99.766 280.088 105.356 280.088 112.251V188.132Z" fill="#96BFED"/>
<path d="M264.837 96.681C264.837 76.399 261.555 86.939 257.506 86.939C253.458 86.939 250.175 77.706 250.175 96.681C250.175 103.789 253.457 103.175 257.506 103.175C261.555 103.175 264.837 103.789 264.837 96.681Z" fill="#FFB692"/>
<path d="M250.328 90.756C251.019 79.898 253.97 86.939 257.506 86.939C261.426 86.939 264.628 77.057 264.827 94.842C258.564 97.314 253.704 94.446 250.328 90.756Z" fill="#D88D87"/>
<path d="M246.739 71.099C247.181 73.824 246.063 76.313 244.242 76.659C242.421 77.004 240.587 75.075 240.145 72.35C239.703 69.625 240.821 67.136 242.642 66.79C244.463 66.445 246.297 68.373 246.739 71.099Z" fill="#FFB692"/>
<path d="M244.814 71.373C245.092 71.32 245.37 71.351 245.638 71.447C245.632 71.402 245.628 71.357 245.621 71.311C245.329 69.511 244.117 68.236 242.914 68.464C241.711 68.692 240.972 70.337 241.264 72.137C241.488 73.521 242.257 74.591 243.147 74.91C242.912 73.164 243.641 71.595 244.814 71.373Z" fill="#D88D87"/>
<path d="M241.53 55.508C235.781 60.424 243.03 70.422 243.03 70.422V58.758L241.53 55.508Z" fill="#664229"/>
<path d="M260.542 51.863H253.211C247.49 51.863 242.81 56.544 242.81 62.264V77.406C242.81 85.395 249.346 91.931 257.335 91.931C265.324 91.931 271.86 85.395 271.86 77.406V63.18C271.859 56.955 266.766 51.863 260.542 51.863Z" fill="#FFB692"/>
<path d="M260.542 51.863H253.211C247.49 51.863 242.81 56.544 242.81 62.264V64.245C255.066 72.666 261.237 60.077 261.237 60.077C261.237 60.077 263.712 64.435 271.553 60.618C270.383 55.619 265.885 51.863 260.542 51.863Z" fill="#D88D87"/>
<path d="M262.309 56.271C250.407 70.588 230.531 57.174 237.197 45.26C243.307 34.338 254.806 43.421 251.96 48.509C251.96 48.509 266.277 41.782 272.141 50.32C278.006 58.858 272.831 70.588 272.831 70.588H271.106C271.106 70.588 267.656 65.155 269.812 60.066C269.812 60.066 262.913 62.568 262.309 56.271Z" fill="#875330"/>
<path d="M266.457 46.423C265.495 46.175 264.5 46.05 263.502 46.01C257.664 51.168 243.113 61.806 236.576 46.585C235.34 49.703 235.814 52.844 237.39 55.503C247.778 61.628 262.545 49.829 266.457 46.423Z" fill="#A8683D"/>
<path d="M262.838 66.971L260.435 66.049C259.692 65.764 259.317 64.922 259.602 64.179C259.887 63.436 260.729 63.061 261.472 63.346L263.875 64.268C264.618 64.553 264.993 65.395 264.708 66.138C264.423 66.882 263.582 67.257 262.838 66.971Z" fill="#664229"/>
<path d="M251.451 66.223L249.134 67.344C248.417 67.691 247.547 67.388 247.2 66.671C246.853 65.954 247.156 65.084 247.873 64.737L250.19 63.616C250.907 63.269 251.777 63.572 252.124 64.289C252.47 65.007 252.168 65.877 251.451 66.223Z" fill="#664229"/>
<path d="M253.961 75.782C253.961 75.782 257.297 76.393 257.312 77.018C257.327 77.644 255.704 77.941 255.257 77.673C254.811 77.406 253.961 75.782 253.961 75.782Z" fill="#D88D87"/>
<path d="M256.653 68.538C256.296 69.283 255.95 70.036 255.639 70.801C255.32 71.564 254.999 72.328 254.707 73.101C254.412 73.873 254.117 74.647 253.852 75.427L253.802 75.573C253.796 75.562 253.774 75.705 253.805 75.801C253.833 75.884 253.852 75.893 253.879 75.941C253.976 76.07 254.059 76.134 254.146 76.21C254.316 76.353 254.498 76.461 254.676 76.574C255.039 76.786 255.413 76.973 255.816 77.109C255.532 76.794 255.228 76.514 254.934 76.232C254.785 76.096 254.641 75.951 254.507 75.817C254.445 75.752 254.378 75.673 254.358 75.632C254.362 75.634 254.344 75.603 254.36 75.637C254.387 75.683 254.345 75.774 254.367 75.715L254.422 75.571C254.715 74.804 254.98 74.031 255.244 73.256C255.511 72.482 255.749 71.699 255.989 70.915C256.238 70.134 256.451 69.34 256.653 68.538Z" fill="#34344F"/>
<path d="M263.063 69.942C263.063 70.824 262.348 71.539 261.466 71.539C260.584 71.539 259.869 70.824 259.869 69.942C259.869 69.06 260.584 68.345 261.466 68.345C262.348 68.345 263.063 69.06 263.063 69.942Z" fill="#34344F"/>
<path d="M251.685 69.942C251.685 70.824 250.97 71.539 250.088 71.539C249.206 71.539 248.491 70.824 248.491 69.942C248.491 69.06 249.206 68.345 250.088 68.345C250.97 68.345 251.685 69.06 251.685 69.942Z" fill="#34344F"/>
<path d="M253.846 79.296C255.787 78.803 258.484 77.981 260.986 76.742C262.632 75.927 264.32 77.957 263.591 79.906C262.816 81.979 261.299 83.995 258.351 84.533C255.934 84.974 254.319 84.477 253.242 83.667C251.718 82.521 252.116 79.735 253.846 79.296Z" fill="#34344F"/>
<path d="M258.351 84.533C261.299 83.995 262.816 81.978 263.591 79.906C263.7 79.614 263.749 79.321 263.758 79.035C262.658 78.657 261.233 78.596 259.384 79.183C256.529 80.09 255.295 82.279 254.805 84.429C254.804 84.433 254.804 84.437 254.803 84.442C255.735 84.72 256.895 84.799 258.351 84.533Z" fill="#FF9292"/>
<path d="M256.703 82.238C257.042 82.712 258.159 82.526 259.197 81.822C260.235 81.118 260.802 80.162 260.462 79.688C260.123 79.214 259.006 79.4 257.968 80.104C256.931 80.808 256.364 81.763 256.703 82.238Z" fill="#FFABAB"/>
<path d="M253.846 79.296C255.787 78.803 258.484 77.981 260.986 76.742C261.996 76.241 263.021 76.816 263.494 77.784C262.097 79.285 259.874 80.602 257.204 81.347C255.492 81.825 253.815 82.005 252.312 81.926C252.196 80.782 252.755 79.573 253.846 79.296Z" fill="white"/>
<path d="M269.546 71.099C269.104 73.824 270.222 76.313 272.043 76.659C273.864 77.004 275.698 75.075 276.14 72.35C276.582 69.625 275.464 67.136 273.643 66.79C271.822 66.445 269.988 68.373 269.546 71.099Z" fill="#FFB692"/>
<path d="M271.471 71.373C271.193 71.32 270.915 71.351 270.647 71.447C270.653 71.402 270.657 71.357 270.664 71.311C270.956 69.511 272.168 68.236 273.371 68.464C274.574 68.692 275.313 70.337 275.021 72.137C274.796 73.521 274.028 74.591 273.138 74.91C273.373 73.164 272.644 71.595 271.471 71.373Z" fill="#D88D87"/>
<path d="M276.848 103.88C276.848 103.88 297.184 117.082 305.546 148.577C306.587 152.499 304.883 156.692 301.342 158.673C301.288 158.703 301.234 158.733 301.179 158.763C297.465 160.788 292.865 160.205 289.727 157.369L280.088 142.657L276.848 103.88Z" fill="#70AEE5"/>
<path d="M290.519 150.568L299.559 109.536C300.104 107.064 302.55 105.501 305.022 106.045C307.32 106.551 308.832 108.7 308.596 110.986L304.342 152.786C303.95 156.638 300.509 159.444 296.657 159.052C292.804 158.66 289.999 155.219 290.391 151.366C290.418 151.097 290.462 150.827 290.519 150.568Z" fill="#FFB692"/>
<path d="M296.814 109.242C296.335 113.234 306.155 116.667 310.307 114.112C313.696 112.026 318.185 108.983 323.586 107.023C325.303 106.4 325.637 104.117 324.19 103.002C321.517 100.941 317.495 98.669 313.474 99.501C306.528 100.938 303.52 104.93 303.52 104.93C303.52 104.93 303.6 97.904 298.011 97.904L298.49 101.816C298.49 101.816 295.536 105.41 296.814 109.242Z" fill="#FFB692"/>
<path d="M305.537 105.329C305.537 105.329 309.691 105.073 313.015 108.908C313.015 108.908 312.173 103.06 305.537 105.329Z" fill="#D88D87"/>
<path d="M321.984 101.488C321.471 101.179 320.932 100.888 320.374 100.622C313.188 102.185 310.485 106.043 310.364 106.221L311.316 106.867C311.346 106.825 314.25 102.734 321.984 101.488Z" fill="#D88D87"/>
<path d="M316.521 99.416C310.292 101.173 307.822 104.898 307.703 105.083L308.674 105.702C308.703 105.656 311.548 101.334 318.959 100.029C318.17 99.746 317.354 99.529 316.521 99.416Z" fill="#D88D87"/>
<path d="M324.226 103.038C318.438 103.332 312.365 107.297 312.09 107.48L312.726 108.439C312.793 108.394 319.362 104.135 324.985 104.168C324.856 103.745 324.612 103.349 324.226 103.038Z" fill="#D88D87"/>
<path d="M265.534 107.412H250.312C249.306 107.412 248.49 106.596 248.49 105.59V98.824C248.49 97.818 249.306 97.002 250.312 97.002H265.534C266.54 97.002 267.356 97.818 267.356 98.824V105.59C267.357 106.596 266.541 107.412 265.534 107.412Z" fill="#70AEE5"/>
<path d="M198.394 129.28L170.757 97.632C169.092 95.725 169.288 92.829 171.195 91.164C172.967 89.616 175.594 89.677 177.293 91.224L208.39 119.479C211.256 122.083 211.469 126.518 208.865 129.384C206.261 132.25 201.826 132.463 198.96 129.858C198.76 129.675 198.569 129.479 198.394 129.28Z" fill="#FFB692"/>
<path d="M175.403 94.057L174.58 95.341C172.274 98.938 167.489 99.985 163.892 97.679C160.295 95.373 159.248 90.588 161.554 86.991L162.377 85.707C164.683 82.11 169.468 81.063 173.065 83.369C176.662 85.675 177.709 90.46 175.403 94.057Z" fill="#FFB692"/>
<path d="M168.507 84.223C167.759 85.042 166.478 85.1 165.659 84.352L157.533 76.931C156.714 76.183 156.656 74.902 157.404 74.083C158.152 73.264 159.433 73.206 160.252 73.954L168.378 81.375C169.196 82.123 169.254 83.405 168.507 84.223Z" fill="#FFB692"/>
<path d="M169.852 94.286C169.303 95.249 168.066 95.587 167.102 95.038L160.144 90.654C159.181 90.105 158.843 88.867 159.392 87.904C159.941 86.941 161.179 86.603 162.141 87.152L169.099 91.536C170.063 92.086 170.401 93.324 169.852 94.286Z" fill="#F9AD8C"/>
<path d="M172.038 91.056C171.489 92.019 170.252 92.357 169.288 91.808L162.33 87.424C161.367 86.875 161.028 85.637 161.578 84.674C162.127 83.711 163.365 83.373 164.328 83.922L171.286 88.306C172.249 88.855 172.587 90.093 172.038 91.056Z" fill="#F9AD8C"/>
<path d="M168.674 97.296C168.187 98.292 166.974 98.709 165.978 98.222L158.755 94.29C157.759 93.803 157.342 92.59 157.829 91.594C158.316 90.598 159.529 90.181 160.525 90.668L167.748 94.6C168.744 95.086 169.161 96.3 168.674 97.296Z" fill="#F9AD8C"/>
<path d="M168.096 87.69C167.8 89.872 168.401 92.081 169.762 93.812C171.263 95.155 173.61 94.836 174.698 93.139L177.57 88.658C178.495 87.215 178.15 85.304 176.779 84.276L173.675 81.948L168.096 87.69Z" fill="#F9AD8C"/>
<path d="M172.462 83.196L168.096 87.69C167.906 89.09 168.09 90.499 168.602 91.788C172.366 90.275 172.639 85.769 172.462 83.196Z" fill="#F29D7E"/>
<path d="M164.343 88.564L168.91 81.44C169.549 80.444 170.874 80.154 171.87 80.792L173.674 81.948L170.011 87.662C168.81 89.536 166.261 90.039 164.479 88.706C164.368 88.622 164.315 88.57 164.343 88.564Z" fill="#F2A17E"/>
<path d="M325.082 0.450989H286.615C281.487 0.450989 277.33 4.60799 277.33 9.73599V28.97C277.33 33.874 281.135 37.88 285.952 38.222V48.646L296.343 38.256H325.083C330.211 38.256 334.368 34.099 334.368 28.971V9.73599C334.367 4.60799 330.211 0.450989 325.082 0.450989Z" fill="#FFBF31"/>
<path d="M285.842 13.274C285.842 14.098 286.51 14.766 287.334 14.766H325.635C326.459 14.766 327.127 14.098 327.127 13.274C327.127 12.45 326.459 11.782 325.635 11.782H287.334C286.51 11.781 285.842 12.449 285.842 13.274Z" fill="white"/>
<path d="M287.334 21.066H325.635C326.459 21.066 327.127 20.398 327.127 19.574C327.127 18.75 326.459 18.082 325.635 18.082H287.334C286.51 18.082 285.842 18.75 285.842 19.574C285.842 20.398 286.51 21.066 287.334 21.066Z" fill="white"/>
<path d="M287.334 27.367H325.635C326.459 27.367 327.127 26.699 327.127 25.875C327.127 25.051 326.459 24.383 325.635 24.383H287.334C286.51 24.383 285.842 25.051 285.842 25.875C285.842 26.699 286.51 27.367 287.334 27.367Z" fill="white"/>
<path d="M107.354 88.048H68.887C63.759 88.048 59.6021 92.205 59.6021 97.333V116.566C59.6021 121.47 63.4071 125.476 68.2241 125.818V136.242L78.6151 125.852H107.355C112.483 125.852 116.64 121.695 116.64 116.567V97.334C116.639 92.205 112.482 88.048 107.354 88.048Z" fill="#FF5050"/>
<path d="M68.113 100.87C68.113 101.694 68.781 102.362 69.605 102.362H107.906C108.73 102.362 109.398 101.694 109.398 100.87C109.398 100.046 108.73 99.378 107.906 99.378H69.605C68.781 99.378 68.113 100.046 68.113 100.87Z" fill="white"/>
<path d="M69.605 108.663H107.906C108.73 108.663 109.398 107.995 109.398 107.171C109.398 106.347 108.73 105.679 107.906 105.679H69.605C68.781 105.679 68.113 106.347 68.113 107.171C68.113 107.994 68.781 108.663 69.605 108.663Z" fill="white"/>
<path d="M69.605 114.963H107.906C108.73 114.963 109.398 114.295 109.398 113.471C109.398 112.647 108.73 111.979 107.906 111.979H69.605C68.781 111.979 68.113 112.647 68.113 113.471C68.113 114.295 68.781 114.963 69.605 114.963Z" fill="white"/>
<path d="M57.7541 283.133H38.9331V376.61H57.7541V283.133Z" fill="#C6D7F4"/>
<path d="M38.9331 297.505C47.8101 296.323 54.0001 300.42 57.7541 306.502V283.133H38.9331V297.505Z" fill="#A0B8E8"/>
<path d="M50.9221 237.622H25.2841C13.2561 237.622 3.5061 227.872 3.5061 215.844V206.902C3.5061 191.029 16.3741 178.161 32.2471 178.161H43.9601C59.8331 178.161 72.7011 191.029 72.7011 206.902V215.844C72.7001 227.872 62.9501 237.622 50.9221 237.622Z" fill="#7289B5"/>
<path d="M57.3801 237.622H31.7421C19.7141 237.622 9.96411 227.872 9.96411 215.844V206.902C9.96411 191.029 22.8321 178.161 38.7051 178.161H50.4181C66.2911 178.161 79.1591 191.029 79.1591 206.902V215.844C79.1581 227.872 69.4081 237.622 57.3801 237.622Z" fill="#819BC7"/>
<path d="M69.1 291.805H10.333C4.626 291.805 0 287.179 0 281.472C0 275.765 4.626 271.139 10.333 271.139H69.1C74.807 271.139 79.433 275.765 79.433 281.472C79.433 287.179 74.807 291.805 69.1 291.805Z" fill="#7289B5"/>
<path d="M78.3261 291.805H31.1211C25.4141 291.805 20.7881 287.179 20.7881 281.472C20.7881 275.765 25.4141 271.139 31.1211 271.139H78.3261C84.0331 271.139 88.6591 275.765 88.6591 281.472C88.6591 287.179 84.0331 291.805 78.3261 291.805Z" fill="#819BC7"/>
<path d="M79.8191 377.207H18.5951C15.4861 377.207 12.9651 374.687 12.9651 371.577V371.493C12.9651 368.384 15.4851 365.863 18.5951 365.863H79.8191C82.9281 365.863 85.4491 368.384 85.4491 371.493V371.576C85.4491 374.686 82.9281 377.207 79.8191 377.207Z" fill="#C6D7F4"/>
<path d="M40.4951 383.233C40.4951 386.561 37.7971 389.259 34.4691 389.259C31.1411 389.259 28.4431 386.561 28.4431 383.233C28.4431 379.905 31.1411 377.207 34.4691 377.207C37.7971 377.207 40.4951 379.905 40.4951 383.233Z" fill="#A0B8E8"/>
<path d="M36.4651 383.233C36.4651 386.561 33.7671 389.259 30.4391 389.259C27.1111 389.259 24.4131 386.561 24.4131 383.233C24.4131 379.905 27.1111 377.207 30.4391 377.207C33.7671 377.207 36.4651 379.905 36.4651 383.233Z" fill="#8397B7"/>
<path d="M59.1511 383.233C59.1511 386.561 56.4531 389.259 53.1251 389.259C49.7971 389.259 47.0991 386.561 47.0991 383.233C47.0991 379.905 49.7971 377.207 53.1251 377.207C56.4531 377.207 59.1511 379.905 59.1511 383.233Z" fill="#A0B8E8"/>
<path d="M55.1211 383.233C55.1211 386.561 52.4231 389.259 49.0951 389.259C45.7671 389.259 43.0691 386.561 43.0691 383.233C43.0691 379.905 45.7671 377.207 49.0951 377.207C52.4231 377.207 55.1211 379.905 55.1211 383.233Z" fill="#8397B7"/>
<path d="M77.8071 383.233C77.8071 386.561 75.1091 389.259 71.7811 389.259C68.4531 389.259 65.7551 386.561 65.7551 383.233C65.7551 379.905 68.4531 377.207 71.7811 377.207C75.1091 377.207 77.8071 379.905 77.8071 383.233Z" fill="#A0B8E8"/>
<path d="M73.7771 383.233C73.7771 386.561 71.0791 389.259 67.7511 389.259C64.4231 389.259 61.7251 386.561 61.7251 383.233C61.7251 379.905 64.4231 377.207 67.7511 377.207C71.0791 377.207 73.7771 379.905 73.7771 383.233Z" fill="#8397B7"/>
<path d="M88.0549 372.33C88.0549 372.33 85.1919 374.892 88.0549 387.702C88.0549 387.702 107.502 392.525 125.587 387.702C125.587 387.702 128.028 375.495 112.882 373.837C97.7359 372.179 88.0549 372.33 88.0549 372.33Z" fill="#E5B241"/>
<path d="M125.587 387.702C125.587 387.702 114.127 392.223 88.0549 387.702" stroke="white" stroke-width="3" stroke-miterlimit="10" stroke-linecap="round" stroke-linejoin="round"/>
<path d="M53.6279 266.378L120.544 280.448L95.8669 374.048" stroke="#353551" stroke-width="16" stroke-miterlimit="10"/>
<path d="M38.9709 238.682H48.1419C58.2299 238.682 66.4839 246.936 66.4839 257.024C66.4839 267.112 58.2299 275.366 48.1419 275.366H38.9709C28.8829 275.366 20.6299 267.112 20.6299 257.024C20.6289 246.935 28.8829 238.682 38.9709 238.682Z" fill="#3E3D5E"/>
<path d="M70.2758 372.33C70.2758 372.33 67.4118 374.892 70.2758 387.702C70.2758 387.702 89.7228 392.525 107.808 387.702C107.808 387.702 110.249 375.495 95.1028 373.837C79.9568 372.179 70.2758 372.33 70.2758 372.33Z" fill="#FFBF31"/>
<path d="M107.808 387.702C107.808 387.702 96.3479 392.223 70.2759 387.702" stroke="white" stroke-width="3" stroke-miterlimit="10" stroke-linecap="round" stroke-linejoin="round"/>
<path d="M35.8489 266.378L102.765 280.448L78.0889 374.048" stroke="#3E3D5E" stroke-width="16" stroke-miterlimit="10"/>
<path d="M27.424 138.149C7.17897 214.564 22.591 211.976 50.447 213.803C78.303 215.63 56.688 136.018 56.688 136.018L27.424 138.149Z" fill="#633C22"/>
<path d="M101.834 198.666L84.2128 228.423C82.8058 230.8 79.7378 231.585 77.3618 230.178C74.9858 228.771 74.1998 225.703 75.6068 223.327C75.6338 223.281 75.6728 223.218 75.7008 223.174L94.3808 194.07C95.6868 192.035 98.3958 191.444 100.431 192.75C102.42 194.026 103.026 196.648 101.834 198.666Z" fill="#ED9E7C"/>
<path d="M66.3479 184.17L84.8019 223.487C86.0539 226.155 84.9069 229.334 82.2379 230.586C79.5699 231.838 76.3909 230.691 75.1389 228.022C75.1339 228.012 75.1169 227.975 75.1129 227.965L57.1249 188.432C55.9629 185.878 57.0909 182.866 59.6449 181.704C62.1799 180.551 65.1669 181.657 66.3479 184.17Z" fill="#ED9E7C"/>
<path d="M94.4 203.661L95.782 204.064C99.653 205.193 103.705 202.97 104.834 199.099C105.963 195.229 103.74 191.176 99.869 190.047L98.487 189.644C94.616 188.516 90.564 190.738 89.435 194.609C88.306 198.48 90.529 202.533 94.4 203.661Z" fill="#ED9E7C"/>
<path d="M93.2068 192.39C94.2458 192.509 95.1938 191.755 95.3128 190.716L96.4908 180.398C96.6098 179.358 95.8558 178.411 94.8168 178.292C93.7778 178.173 92.8298 178.927 92.7118 179.966L91.5338 190.284C91.4138 191.324 92.1678 192.271 93.2068 192.39Z" fill="#ED9E7C"/>
<path d="M98.4909 200.382C99.4789 200.726 100.569 200.2 100.913 199.212L103.143 191.779C103.487 190.791 102.961 189.701 101.973 189.357C100.985 189.013 99.8949 189.539 99.5509 190.527L97.3209 197.96C96.9759 198.947 97.5029 200.037 98.4909 200.382Z" fill="#E09377"/>
<path d="M94.9319 199.439C95.9199 199.783 97.0099 199.257 97.3539 198.269L99.5839 190.836C99.9279 189.848 99.4019 188.758 98.4139 188.414C97.4259 188.07 96.3359 188.596 95.9919 189.584L93.7619 197.017C93.4179 198.005 93.9439 199.095 94.9319 199.439Z" fill="#E09377"/>
<path d="M101.194 201.792C102.158 202.199 103.279 201.743 103.686 200.779L106.386 193.503C106.793 192.539 106.337 191.418 105.373 191.011C104.409 190.604 103.288 191.06 102.881 192.024L100.181 199.3C99.7748 200.264 100.23 201.385 101.194 201.792Z" fill="#E09377"/>
<path d="M95.6489 194.601C97.2119 195.97 98.1549 197.913 98.2609 199.989C98.0259 201.876 96.1579 203.104 94.3329 202.572L89.5109 201.166C87.9589 200.713 87.0189 199.14 87.3559 197.558L88.1199 193.977L95.6489 194.601Z" fill="#ED9E7C"/>
<path d="M89.7568 194.112L95.6488 194.601C96.6518 195.479 97.3948 196.596 97.8298 197.83C94.2148 199.087 91.2258 196.051 89.7568 194.112Z" fill="#B77D69"/>
<path d="M98.8598 192.895L91.1938 190.66C90.1218 190.347 88.9988 190.963 88.6868 192.035L88.1208 193.976L94.2688 195.769C96.2848 196.357 98.4108 195.134 98.8508 193.081C98.8778 192.951 98.8838 192.882 98.8598 192.895Z" fill="#ED9E7C"/>
<path d="M17.9629 255.96C20.9009 256.969 23.0899 257.864 26.5879 258.538C42.0619 261.521 59.9909 258.757 68.7439 255.96C68.7439 245.139 63.1379 234.319 63.1379 223.498C63.1379 213.116 66.9279 202.734 66.9429 192.352C66.9539 185.017 61.0039 179.016 53.6699 179.016H32.8979C32.2869 179.016 31.6669 179.057 31.0439 179.137C22.0799 180.286 16.2389 189.207 18.2139 198.026L23.8939 223.389L17.9629 255.96Z" fill="#FFBF31"/>
<path d="M31.6938 182.428C31.6938 185.817 37.2158 188.565 44.0278 188.565C50.8398 188.565 56.3629 185.817 56.3629 182.428C56.3629 179.038 50.8408 178.207 44.0278 178.207C37.2168 178.207 31.6938 179.038 31.6938 182.428Z" fill="#ED9E7C"/>
<path d="M35.8389 179.252C35.8389 157.688 39.3279 168.895 43.6329 168.895C47.9379 168.895 51.4269 159.079 51.4269 179.252C51.4269 186.809 47.9369 186.157 43.6329 186.157C39.3279 186.157 35.8389 186.809 35.8389 179.252Z" fill="#ED9E7C"/>
<path d="M51.2638 172.953C50.5298 161.409 47.3919 168.895 43.6329 168.895C39.4649 168.895 36.0609 158.389 35.8499 177.298C42.5079 179.925 47.6748 176.875 51.2638 172.953Z" fill="#B77D69"/>
<path d="M55.844 152.343C55.364 155.305 56.579 158.01 58.558 158.386C60.537 158.762 62.531 156.665 63.011 153.703C63.491 150.741 62.276 148.036 60.297 147.66C58.318 147.284 56.325 149.381 55.844 152.343Z" fill="#ED9E7C"/>
<path d="M57.937 152.641C57.635 152.584 57.332 152.617 57.041 152.721C57.048 152.672 57.052 152.623 57.06 152.574C57.377 150.617 58.694 149.232 60.002 149.48C61.31 149.728 62.113 151.515 61.795 153.472C61.551 154.976 60.716 156.139 59.748 156.486C60.004 154.587 59.212 152.882 57.937 152.641Z" fill="#B77D69"/>
<path d="M55.915 160.574C55.915 158.074 57.208 156.048 58.803 156.048" stroke="#FBB03B" stroke-miterlimit="10" stroke-linecap="round" stroke-linejoin="round"/>
<path d="M40.8429 130.751H48.8109C55.0289 130.751 60.1159 135.838 60.1159 142.056V158.514C60.1159 167.197 53.0119 174.3 44.3299 174.3C35.6469 174.3 28.5439 167.196 28.5439 158.514V143.051C28.5429 136.286 34.0779 130.751 40.8429 130.751Z" fill="#ED9E7C"/>
<path d="M60.1158 142.275V142.056C60.1158 135.838 55.0288 130.751 48.8108 130.751H40.8428C34.4648 130.751 29.1858 135.672 28.6018 141.903C41.5778 150.04 52.8718 146.631 60.1158 142.275Z" fill="#B77D69"/>
<path d="M26.6689 149.835C33.9739 151.646 34.9999 140.478 34.9999 140.478C34.9999 140.478 46.6509 147.3 52.2659 137.097C52.2659 137.097 55.7719 147.796 60.2979 146.974V141.777C60.2979 135.191 54.9589 129.853 48.3739 129.853H38.6669C32.1239 129.853 26.8029 135.126 26.7429 141.669L26.6689 149.835Z" fill="#633C22"/>
<path d="M55.9868 132.602C55.3618 132.083 54.6828 131.63 53.9598 131.246C51.2458 135.718 46.8688 139.286 39.7918 138.834C34.9168 138.523 31.7868 136.538 29.7998 133.823C29.1948 134.497 28.6558 135.232 28.2148 136.032C39.4338 144.226 49.0668 139.542 55.9868 132.602Z" fill="#935838"/>
<path d="M37.296 148.088L39.908 147.086C40.716 146.776 41.123 145.861 40.814 145.053C40.504 144.245 39.589 143.837 38.781 144.147L36.169 145.149C35.361 145.459 34.953 146.374 35.263 147.182C35.574 147.991 36.488 148.398 37.296 148.088Z" fill="#633C22"/>
<path d="M49.7898 147.275L52.3078 148.493C53.0868 148.87 54.0328 148.541 54.4098 147.762C54.7868 146.983 54.4578 146.037 53.6788 145.66L51.1608 144.442C50.3818 144.065 49.4358 144.394 49.0588 145.173C48.6818 145.953 49.0108 146.899 49.7898 147.275Z" fill="#633C22"/>
<path d="M47.9949 156.748C47.9949 156.748 44.3689 157.412 44.3529 158.092C44.3369 158.772 46.1009 159.096 46.5869 158.804C47.0719 158.513 47.9949 156.748 47.9949 156.748Z" fill="#B77D69"/>
<path d="M45.0688 148.875C45.4568 149.685 45.8329 150.503 46.1709 151.335C46.5169 152.164 46.8659 152.994 47.1839 153.834C47.5039 154.673 47.8249 155.514 48.1139 156.362L48.1679 156.521C48.1749 156.509 48.1988 156.665 48.1638 156.769C48.1338 156.859 48.1128 156.869 48.0828 156.921C47.9778 157.061 47.8869 157.131 47.7929 157.213C47.6079 157.369 47.4109 157.486 47.2169 157.608C46.8219 157.838 46.4159 158.041 45.9779 158.189C46.2869 157.846 46.6169 157.542 46.9369 157.236C47.0989 157.088 47.2548 156.931 47.4008 156.785C47.4678 156.714 47.5419 156.629 47.5629 156.584C47.5589 156.587 47.5779 156.553 47.5599 156.589C47.5309 156.639 47.5758 156.738 47.5528 156.674L47.4929 156.518C47.1739 155.685 46.8869 154.844 46.5999 154.002C46.3099 153.161 46.0508 152.31 45.7898 151.458C45.5208 150.609 45.2888 149.746 45.0688 148.875Z" fill="#34344F"/>
<path d="M38.3079 150.4C38.3079 151.359 39.0849 152.136 40.0439 152.136C41.0029 152.136 41.7799 151.359 41.7799 150.4C41.7799 149.441 41.0029 148.664 40.0439 148.664C39.0849 148.664 38.3079 149.442 38.3079 150.4Z" fill="#34344F"/>
<path d="M38.9019 150.913C38.6499 151.515 37.1149 151.263 36.7649 149.864L37.6589 150.117L38.9019 149.126V150.913Z" fill="#34344F"/>
<path d="M49.5359 150.4C49.5359 151.359 50.3129 152.136 51.2719 152.136C52.2309 152.136 53.0079 151.359 53.0079 150.4C53.0079 149.441 52.2309 148.664 51.2719 148.664C50.3129 148.664 49.5359 149.442 49.5359 150.4Z" fill="#34344F"/>
<path d="M52.3809 150.913C52.6329 151.515 54.1679 151.263 54.5179 149.864L53.6239 150.117L52.3809 149.126V150.913Z" fill="#34344F"/>
<path d="M48.1209 160.568C46.0119 160.033 43.0799 159.139 40.3609 157.792C38.5729 156.906 36.7379 159.113 37.5289 161.23C38.3719 163.483 40.0199 165.674 43.2249 166.26C45.8509 166.74 47.6069 166.199 48.7769 165.319C50.4329 164.072 50.0009 161.045 48.1209 160.568Z" fill="#34344F"/>
<path d="M43.224 166.259C40.02 165.674 38.3709 163.482 37.5279 161.229C37.4089 160.911 37.3559 160.593 37.3459 160.282C38.5419 159.872 40.091 159.805 42.1 160.443C45.203 161.429 46.544 163.808 47.077 166.145C47.078 166.15 47.0779 166.154 47.0789 166.159C46.0679 166.463 44.806 166.548 43.224 166.259Z" fill="#EF8484"/>
<path d="M45.015 163.765C44.647 164.281 43.433 164.078 42.305 163.313C41.177 162.548 40.561 161.509 40.93 160.993C41.299 160.477 42.512 160.68 43.641 161.445C44.768 162.211 45.384 163.249 45.015 163.765Z" fill="#FFABAB"/>
<path d="M48.121 160.568C46.012 160.033 43.08 159.139 40.361 157.792C39.263 157.248 38.149 157.872 37.635 158.924C39.153 160.556 41.57 161.987 44.472 162.796C46.333 163.315 48.155 163.511 49.789 163.425C49.914 162.183 49.306 160.868 48.121 160.568Z" fill="white"/>
<path d="M31.0569 151.658C31.5369 154.62 30.3219 157.325 28.3429 157.701C26.3639 158.077 24.3699 155.98 23.8899 153.018C23.4099 150.056 24.6249 147.351 26.6039 146.975C28.5829 146.599 30.5759 148.696 31.0569 151.658Z" fill="#ED9E7C"/>
<path d="M28.9638 151.956C29.2658 151.898 29.5688 151.932 29.8598 152.036C29.8528 151.987 29.8488 151.938 29.8408 151.888C29.5238 149.932 28.2068 148.546 26.8988 148.794C25.5908 149.042 24.7888 150.83 25.1058 152.786C25.3498 154.29 26.1848 155.453 27.1518 155.8C26.8968 153.902 27.6888 152.197 28.9638 151.956Z" fill="#B77D69"/>
<path d="M153.603 244.469L90.782 244.453L103.898 200.287H163.176C164.913 200.287 166.162 201.958 165.67 203.624L153.603 244.469Z" fill="#646489"/>
<path d="M153.597 244.453H61.7251V247.591H153.597V244.453Z" fill="#575770"/>
<path d="M153.597 244.453H90.782V247.591H153.597V244.453Z" fill="#575770"/>
<path d="M103.899 200.287H101.514L88.209 244.594L90.782 244.453L103.899 200.287Z" fill="#575770"/>
<path d="M136.53 226.444C135.647 229.154 133.051 230.739 130.73 229.983C128.409 229.227 127.244 226.418 128.126 223.707C129.009 220.996 131.605 219.412 133.926 220.167C136.247 220.924 137.413 223.734 136.53 226.444Z" fill="#8484B7"/>
<path d="M26.458 208.762C30.8751 208.762 34.456 203.157 34.456 196.244C34.456 189.33 30.8751 183.726 26.458 183.726C22.0408 183.726 18.46 189.33 18.46 196.244C18.46 203.157 22.0408 208.762 26.458 208.762Z" fill="#ED9E7C"/>
<path d="M31.425 206.045L21.458 190.541C21.458 190.541 20.324 200.612 26.655 208.747C28.457 208.678 30.108 207.682 31.425 206.045Z" fill="#B77D69"/>
<path d="M78.8419 246.853L44.3719 234.796C40.9799 233.61 39.1919 229.898 40.3789 226.506C41.5659 223.114 45.2769 221.326 48.6689 222.513C48.8509 222.577 49.0389 222.653 49.2109 222.73L82.4609 237.83C84.9079 238.941 85.9899 241.825 84.8789 244.272C83.8309 246.578 81.1889 247.665 78.8419 246.853Z" fill="#ED9E7C"/>
<path d="M31.849 186.832L52.805 225.567C54.595 228.875 53.364 233.008 50.056 234.798C46.748 236.588 42.615 235.357 40.825 232.049C40.815 232.03 40.788 231.979 40.777 231.959L20.4 192.916C18.744 189.742 19.974 185.826 23.147 184.17C26.292 182.529 30.166 183.725 31.849 186.832Z" fill="#ED9E7C"/>
<path d="M79.7249 237.343C79.9919 237.075 80.3759 236.961 80.7489 237.025C83.4589 237.491 94.5539 239.406 94.7029 239.518C94.8729 239.646 97.9779 247.471 97.7229 247.514C97.4679 247.556 80.4119 247.514 80.4119 247.514C80.4119 247.514 73.0749 244.014 79.7249 237.343Z" fill="#ED9E7C"/>
<path d="M86.8139 244.218C85.6879 245.365 84.6199 244.928 84.1179 244.601L83.8159 244.369C83.8159 244.369 81.7959 245.324 81.7639 245.475C81.7589 245.496 81.7829 245.568 81.8169 245.659C81.4389 246.457 80.8079 246.98 80.0759 247.329C80.2829 247.451 80.4139 247.514 80.4139 247.514C80.4139 247.514 81.7119 247.517 83.5939 247.521L82.5619 245.627C82.5619 245.627 82.7529 245.216 84.0859 244.679C84.3629 244.965 84.8249 245.354 85.3289 245.415C84.9099 245.694 84.6559 246.43 84.6559 246.43C84.9749 245.74 86.1449 245.269 86.7509 246.539C86.4219 245.799 86.1159 245.458 85.8449 245.351C86.1829 245.216 86.5189 244.879 86.8139 244.218Z" fill="#B77D69"/>
<path d="M94.8808 247.532L93.7888 241.825L95.4298 247.531C95.2538 247.532 95.0718 247.532 94.8808 247.532Z" fill="#B77D69"/>
<path d="M90.1979 247.532C90.0149 247.532 89.8329 247.532 89.6489 247.531L88.5569 241.826L90.1979 247.532Z" fill="#B77D69"/>
<path d="M91.1729 241.826L92.8139 247.533C92.6339 247.533 92.4498 247.533 92.2648 247.533L91.1729 241.826Z" fill="#B77D69"/>
<path d="M424.539 376.61H443.36V283.133H424.539V376.61Z" fill="#C6D7F4"/>
<path d="M443.361 297.505C434.484 296.323 428.294 300.42 424.54 306.502V283.133H443.361V297.505Z" fill="#A0B8E8"/>
<path d="M431.372 237.622H457.011C469.038 237.622 478.789 227.872 478.789 215.844V206.902C478.789 191.029 465.921 178.161 450.048 178.161H438.336C422.463 178.161 409.595 191.029 409.595 206.902V215.844C409.594 227.872 419.344 237.622 431.372 237.622Z" fill="#7289B5"/>
<path d="M424.913 237.622H450.552C462.58 237.622 472.33 227.872 472.33 215.844V206.902C472.33 191.029 459.462 178.161 443.589 178.161H431.876C416.003 178.161 403.135 191.029 403.135 206.902V215.844C403.136 227.872 412.886 237.622 424.913 237.622Z" fill="#819BC7"/>
<path d="M413.194 291.805H471.961C477.668 291.805 482.294 287.179 482.294 281.472C482.294 275.765 477.668 271.139 471.961 271.139H413.194C407.487 271.139 402.861 275.765 402.861 281.472C402.861 287.179 407.487 291.805 413.194 291.805Z" fill="#7289B5"/>
<path d="M403.968 291.805H451.173C456.88 291.805 461.506 287.179 461.506 281.472C461.506 275.765 456.88 271.139 451.173 271.139H403.968C398.261 271.139 393.635 275.765 393.635 281.472C393.635 287.179 398.261 291.805 403.968 291.805Z" fill="#819BC7"/>
<path d="M402.475 377.207H463.699C466.808 377.207 469.329 374.687 469.329 371.577V371.493C469.329 368.384 466.809 365.863 463.699 365.863H402.475C399.366 365.863 396.845 368.384 396.845 371.493V371.576C396.845 374.686 399.366 377.207 402.475 377.207Z" fill="#C6D7F4"/>
<path d="M441.799 383.233C441.799 386.561 444.497 389.259 447.825 389.259C451.153 389.259 453.851 386.561 453.851 383.233C453.851 379.905 451.153 377.207 447.825 377.207C444.497 377.207 441.799 379.905 441.799 383.233Z" fill="#A0B8E8"/>
<path d="M445.829 383.233C445.829 386.561 448.527 389.259 451.855 389.259C455.183 389.259 457.881 386.561 457.881 383.233C457.881 379.905 455.183 377.207 451.855 377.207C448.527 377.207 445.829 379.905 445.829 383.233Z" fill="#8397B7"/>
<path d="M423.143 383.233C423.143 386.561 425.841 389.259 429.169 389.259C432.497 389.259 435.195 386.561 435.195 383.233C435.195 379.905 432.497 377.207 429.169 377.207C425.841 377.207 423.143 379.905 423.143 383.233Z" fill="#A0B8E8"/>
<path d="M427.173 383.233C427.173 386.561 429.871 389.259 433.199 389.259C436.527 389.259 439.225 386.561 439.225 383.233C439.225 379.905 436.527 377.207 433.199 377.207C429.871 377.207 427.173 379.905 427.173 383.233Z" fill="#8397B7"/>
<path d="M404.487 383.233C404.487 386.561 407.185 389.259 410.513 389.259C413.841 389.259 416.539 386.561 416.539 383.233C416.539 379.905 413.841 377.207 410.513 377.207C407.185 377.207 404.487 379.905 404.487 383.233Z" fill="#A0B8E8"/>
<path d="M408.517 383.233C408.517 386.561 411.215 389.259 414.543 389.259C417.871 389.259 420.569 386.561 420.569 383.233C420.569 379.905 417.871 377.207 414.543 377.207C411.215 377.207 408.517 379.905 408.517 383.233Z" fill="#8397B7"/>
<path d="M366.293 237.83L399.543 222.73C402.815 221.244 406.672 222.692 408.158 225.964C409.644 229.236 408.196 233.093 404.924 234.579C404.748 234.659 404.56 234.733 404.382 234.796L369.912 246.853C367.376 247.74 364.6 246.403 363.713 243.867C362.876 241.475 364.035 238.864 366.293 237.83Z" fill="#A56F62"/>
<path d="M428.353 192.916L407.976 231.959C406.236 235.294 402.122 236.586 398.787 234.846C395.452 233.106 394.16 228.992 395.9 225.657C395.91 225.638 395.938 225.586 395.948 225.567L416.904 186.832C418.608 183.683 422.541 182.512 425.69 184.215C428.81 185.902 429.986 189.782 428.353 192.916Z" fill="#A56F62"/>
<path d="M369.029 237.343C368.762 237.075 368.377 236.961 368.005 237.025C365.295 237.491 354.2 239.406 354.051 239.518C353.881 239.646 350.776 247.471 351.031 247.514C351.286 247.556 368.342 247.514 368.342 247.514C368.342 247.514 375.678 244.014 369.029 237.343Z" fill="#A56F62"/>
<path d="M361.94 244.218C363.066 245.365 364.134 244.928 364.636 244.601L364.938 244.369C364.938 244.369 366.958 245.324 366.99 245.475C366.995 245.496 366.971 245.568 366.937 245.659C367.315 246.457 367.946 246.98 368.678 247.329C368.471 247.451 368.34 247.514 368.34 247.514C368.34 247.514 367.042 247.517 365.16 247.521L366.192 245.627C366.192 245.627 366.001 245.216 364.668 244.679C364.391 244.965 363.929 245.354 363.425 245.415C363.844 245.694 364.098 246.43 364.098 246.43C363.779 245.74 362.609 245.269 362.003 246.539C362.332 245.799 362.638 245.458 362.909 245.351C362.571 245.216 362.234 244.879 361.94 244.218Z" fill="#8C5C53"/>
<path d="M353.873 247.532L354.965 241.825L353.324 247.531C353.5 247.532 353.682 247.532 353.873 247.532Z" fill="#8C5C53"/>
<path d="M358.555 247.532C358.738 247.532 358.92 247.532 359.104 247.531L360.195 241.826L358.555 247.532Z" fill="#8C5C53"/>
<path d="M357.58 241.826L355.939 247.533C356.119 247.533 356.303 247.533 356.488 247.533L357.58 241.826Z" fill="#8C5C53"/>
<path d="M414.562 187.002L397.49 219.421L412.296 227.119L429.083 194.569C431.176 190.51 429.544 185.523 425.455 183.488C421.472 181.505 416.635 183.065 414.562 187.002Z" fill="#C4314A"/>
<path d="M394.239 372.33C394.239 372.33 397.102 374.892 394.239 387.702C394.239 387.702 374.792 392.525 356.707 387.702C356.707 387.702 354.266 375.495 369.412 373.837C384.558 372.179 394.239 372.33 394.239 372.33Z" fill="#C4314A"/>
<path d="M356.707 387.702C356.707 387.702 368.167 392.223 394.239 387.702" stroke="white" stroke-width="3" stroke-miterlimit="10" stroke-linecap="round" stroke-linejoin="round"/>
<path d="M428.666 266.378L361.75 280.448L386.427 374.048" stroke="#353551" stroke-width="16" stroke-miterlimit="10"/>
<path d="M443.323 238.682H434.152C424.064 238.682 415.81 246.936 415.81 257.024C415.81 267.112 424.064 275.366 434.152 275.366H443.323C453.411 275.366 461.665 267.112 461.665 257.024C461.665 246.935 453.411 238.682 443.323 238.682Z" fill="#3E3D5E"/>
<path d="M412.018 372.33C412.018 372.33 414.881 374.892 412.018 387.702C412.018 387.702 392.571 392.525 374.486 387.702C374.486 387.702 372.045 375.495 387.191 373.837C402.337 372.179 412.018 372.33 412.018 372.33Z" fill="#FF5050"/>
<path d="M374.486 387.702C374.486 387.702 385.946 392.223 412.018 387.702" stroke="white" stroke-width="3" stroke-miterlimit="10" stroke-linecap="round" stroke-linejoin="round"/>
<path d="M446.445 266.378L379.529 280.448L404.206 374.048" stroke="#3E3D5E" stroke-width="16" stroke-miterlimit="10"/>
<path d="M464.331 255.96C461.393 256.969 459.204 257.864 455.706 258.538C440.232 261.521 422.303 258.757 413.55 255.96C413.55 245.139 414.157 234.319 414.157 223.498C414.157 213.116 415.367 202.734 415.352 192.352C415.341 185.017 421.291 179.016 428.625 179.016H449.397C450.008 179.016 450.628 179.057 451.251 179.137C460.215 180.286 466.056 189.207 464.081 198.026L463.401 223.389L464.331 255.96Z" fill="#FF5050"/>
<path d="M470.41 139.707C470.41 140.635 469.362 141.497 469.262 142.402C469.16 143.321 469.993 144.392 469.792 145.283C469.59 146.183 468.378 146.794 468.08 147.66C467.781 148.53 468.361 149.756 467.972 150.587C467.583 151.418 466.268 151.758 465.793 152.545C465.32 153.329 465.635 154.649 465.082 155.387C464.534 156.119 463.178 156.19 462.556 156.871C461.94 157.546 461.995 158.902 461.312 159.523C460.637 160.137 459.291 159.955 458.555 160.513C457.827 161.064 457.639 162.408 456.856 162.899C456.083 163.384 454.79 162.971 453.969 163.395C453.158 163.813 452.745 165.106 451.891 165.46C451.049 165.809 449.842 165.188 448.961 165.472C448.094 165.751 447.476 166.961 446.575 167.173C445.688 167.382 444.596 166.577 443.68 166.719C442.78 166.858 441.981 167.956 441.057 168.026C440.15 168.095 439.193 167.132 438.265 167.132C437.337 167.132 436.381 168.095 435.474 168.026C434.55 167.956 433.751 166.858 432.851 166.719C431.936 166.578 430.843 167.382 429.956 167.173C429.055 166.96 428.437 165.751 427.57 165.472C426.689 165.188 425.482 165.809 424.639 165.46C423.784 165.106 423.371 163.813 422.56 163.395C421.738 162.971 420.445 163.384 419.672 162.899C418.889 162.407 418.701 161.063 417.973 160.512C417.236 159.954 415.891 160.136 415.215 159.521C414.532 158.9 414.587 157.544 413.971 156.869C413.349 156.187 411.993 156.116 411.445 155.384C410.893 154.646 411.207 153.327 410.735 152.542C410.26 151.754 408.946 151.414 408.557 150.584C408.167 149.753 408.748 148.527 408.449 147.657C408.152 146.791 406.94 146.18 406.738 145.281C406.538 144.39 407.37 143.319 407.268 142.4C407.168 141.496 406.12 140.633 406.12 139.706C406.12 138.778 407.168 137.916 407.268 137.011C407.37 136.092 406.537 135.021 406.738 134.13C406.94 133.23 408.152 132.619 408.45 131.753C408.749 130.883 408.169 129.657 408.558 128.826C408.947 127.995 410.262 127.655 410.737 126.868C411.21 126.084 410.895 124.764 411.448 124.026C411.996 123.294 413.352 123.223 413.974 122.542C414.59 121.867 414.535 120.511 415.218 119.89C415.894 119.276 417.239 119.458 417.975 118.9C418.703 118.349 418.891 117.005 419.674 116.514C420.446 116.029 421.74 116.442 422.561 116.018C423.372 115.6 423.785 114.307 424.639 113.953C425.481 113.604 426.688 114.225 427.569 113.941C428.436 113.662 429.054 112.452 429.955 112.24C430.842 112.031 431.934 112.836 432.85 112.694C433.75 112.555 434.549 111.457 435.473 111.387C436.381 111.318 437.337 112.281 438.265 112.281C439.193 112.281 440.149 111.318 441.056 111.387C441.98 111.457 442.779 112.555 443.679 112.694C444.594 112.835 445.687 112.031 446.574 112.24C447.475 112.453 448.092 113.662 448.96 113.941C449.841 114.225 451.048 113.604 451.891 113.953C452.746 114.307 453.159 115.6 453.97 116.018C454.792 116.442 456.085 116.029 456.858 116.514C457.641 117.006 457.829 118.35 458.557 118.901C459.294 119.459 460.639 119.277 461.315 119.892C461.998 120.513 461.943 121.869 462.559 122.544C463.181 123.226 464.537 123.297 465.085 124.029C465.637 124.767 465.323 126.086 465.795 126.871C466.27 127.659 467.584 127.999 467.973 128.829C468.363 129.66 467.782 130.886 468.081 131.756C468.378 132.622 469.59 133.233 469.792 134.133C469.992 135.024 469.16 136.094 469.261 137.013C469.361 137.917 470.41 138.779 470.41 139.707Z" fill="#323244"/>
<path d="M446.455 179.252C446.455 157.688 442.966 168.895 438.661 168.895C434.356 168.895 430.867 159.079 430.867 179.252C430.867 186.809 434.356 186.157 438.661 186.157C442.966 186.157 446.455 186.809 446.455 179.252Z" fill="#A56F62"/>
<path d="M431.03 172.953C431.764 161.409 434.902 168.895 438.661 168.895C442.829 168.895 446.233 158.389 446.444 177.298C439.786 179.925 434.618 176.875 431.03 172.953Z" fill="#8C5C53"/>
<path d="M426.45 152.343C426.93 155.305 425.715 158.01 423.736 158.386C421.757 158.762 419.763 156.665 419.283 153.703C418.803 150.741 420.018 148.036 421.997 147.66C423.976 147.284 425.969 149.381 426.45 152.343Z" fill="#A56F62"/>
<path d="M424.357 152.641C424.659 152.584 424.962 152.617 425.253 152.721C425.246 152.672 425.242 152.623 425.234 152.574C424.917 150.617 423.6 149.232 422.292 149.48C420.985 149.728 420.182 151.515 420.499 153.472C420.743 154.976 421.578 156.139 422.546 156.486C422.29 154.587 423.082 152.882 424.357 152.641Z" fill="#8C5C53"/>
<path d="M426.379 160.574C426.379 158.074 425.086 156.048 423.491 156.048" stroke="#FBB03B" stroke-miterlimit="10" stroke-linecap="round" stroke-linejoin="round"/>
<path d="M441.451 130.751H433.483C427.265 130.751 422.178 135.838 422.178 142.056V158.514C422.178 167.197 429.282 174.3 437.964 174.3C446.646 174.3 453.75 167.196 453.75 158.514V143.051C453.751 136.286 448.216 130.751 441.451 130.751Z" fill="#A56F62"/>
<path d="M421.204 142.734C421.204 136.466 426.332 131.338 432.601 131.338H440.634C443.157 131.338 445.509 132.106 447.473 133.414C447.493 133.515 447.526 133.61 447.54 133.713C447.625 133.686 447.715 133.671 447.802 133.648C450.959 135.901 453.034 139.585 453.034 143.737V148.812C450.617 148.679 448.692 146.695 448.692 144.245C448.692 143.686 448.807 143.157 448.989 142.661C448.957 142.662 448.927 142.671 448.895 142.671C446.56 142.671 444.653 140.922 444.362 138.666C443.931 138.8 443.482 138.893 443.007 138.893C441.491 138.893 440.158 138.149 439.321 137.016C438.542 137.626 437.573 138.004 436.507 138.004C435.385 138.004 434.371 137.586 433.574 136.918C432.733 137.851 431.528 138.448 430.174 138.448C429.963 138.448 429.762 138.413 429.558 138.386C429.13 139.64 428.192 140.654 426.975 141.156C426.752 142.628 425.836 143.858 424.564 144.522C424.683 144.93 424.767 145.353 424.767 145.8C424.767 147.98 423.244 149.797 421.206 150.266V142.734H421.204Z" fill="#8C5C53"/>
<path d="M443.077 147.891L440.444 146.881C439.63 146.568 439.219 145.646 439.531 144.832C439.844 144.018 440.766 143.606 441.58 143.919L444.213 144.929C445.028 145.242 445.438 146.163 445.126 146.978C444.814 147.793 443.892 148.204 443.077 147.891Z" fill="#323244"/>
<path d="M430.6 147.072L428.061 148.3C427.276 148.68 426.322 148.348 425.942 147.563C425.562 146.777 425.894 145.824 426.679 145.444L429.218 144.216C430.003 143.836 430.957 144.168 431.337 144.953C431.718 145.738 431.386 146.692 430.6 147.072Z" fill="#323244"/>
<path d="M434.157 157.499C434.157 157.499 437.812 158.168 437.829 158.853C437.845 159.539 436.067 159.865 435.577 159.571C435.088 159.278 434.157 157.499 434.157 157.499Z" fill="#8C5C53"/>
<path d="M437.107 149.562C436.716 150.378 436.337 151.203 435.996 152.041C435.647 152.877 435.295 153.714 434.975 154.561C434.652 155.407 434.329 156.255 434.038 157.11L433.983 157.27C433.976 157.258 433.952 157.415 433.987 157.52C434.018 157.611 434.039 157.621 434.068 157.673C434.174 157.814 434.265 157.885 434.361 157.967C434.547 158.124 434.746 158.242 434.941 158.365C435.339 158.597 435.749 158.802 436.19 158.951C435.878 158.605 435.545 158.299 435.223 157.99C435.06 157.84 434.902 157.683 434.755 157.536C434.687 157.464 434.613 157.379 434.591 157.334C434.595 157.337 434.576 157.302 434.594 157.339C434.623 157.389 434.577 157.489 434.602 157.425L434.663 157.268C434.984 156.428 435.274 155.581 435.564 154.732C435.856 153.884 436.117 153.027 436.381 152.167C436.651 151.311 436.885 150.44 437.107 149.562Z" fill="#34344F"/>
<path d="M444.13 151.1C444.13 152.067 443.346 152.85 442.38 152.85C441.413 152.85 440.63 152.066 440.63 151.1C440.63 150.133 441.413 149.35 442.38 149.35C443.346 149.35 444.13 150.133 444.13 151.1Z" fill="#323244"/>
<path d="M431.663 151.1C431.663 152.067 430.879 152.85 429.913 152.85C428.947 152.85 428.163 152.066 428.163 151.1C428.163 150.133 428.947 149.35 429.913 149.35C430.879 149.35 431.663 150.133 431.663 151.1Z" fill="#323244"/>
<path d="M443.767 159.838C443.767 159.838 443.69 158.569 442.435 159.092L443.069 159.447C442.216 160.362 438.587 163.575 430.777 162.041C430.777 162.041 433.305 163.708 438.11 162.652C441.876 161.825 442.909 160.183 443.181 159.51L443.767 159.838Z" fill="#8C5C53"/>
<path d="M435.056 150.651C435.056 154.118 432.693 156.929 429.778 156.929C426.863 156.929 424.5 154.118 424.5 150.651C424.5 147.184 426.863 144.373 429.778 144.373C432.693 144.373 435.056 147.184 435.056 150.651Z" stroke="#FF5050" stroke-miterlimit="10"/>
<path d="M447.5 150.651C447.5 154.118 445.137 156.929 442.222 156.929C439.307 156.929 436.944 154.118 436.944 150.651C436.944 147.184 439.307 144.373 442.222 144.373C445.138 144.374 447.5 147.184 447.5 150.651Z" stroke="#FF5050" stroke-miterlimit="10"/>
<path d="M447.102 148.401L453.032 145.905" stroke="#FF5050" stroke-miterlimit="10"/>
<path d="M424.852 148.401L420.056 146.948" stroke="#FF5050" stroke-miterlimit="10"/>
<path d="M437.38 148.012H434.63" stroke="#FF5050" stroke-miterlimit="10"/>
<path d="M418.681 145.17C417.981 144.621 417.524 143.777 417.524 142.819C417.524 141.301 418.655 140.06 420.118 139.86C419.518 139.311 419.135 138.53 419.135 137.652C419.135 136.011 420.454 134.682 422.088 134.657C422.047 134.458 422.024 134.252 422.024 134.041C422.024 132.384 423.367 131.041 425.024 131.041C425.313 131.041 425.587 131.095 425.851 131.171C426.243 129.97 427.359 129.097 428.691 129.097C429.509 129.097 430.248 129.426 430.789 129.957C431.312 129.08 432.261 128.486 433.357 128.486C434.352 128.486 435.228 128.976 435.774 129.723C436.32 128.977 437.195 128.486 438.191 128.486C439.351 128.486 440.345 129.151 440.844 130.114C441.394 129.495 442.186 129.097 443.079 129.097C444.605 129.097 445.851 130.24 446.04 131.714C446.554 131.3 447.2 131.041 447.912 131.041C449.569 131.041 450.912 132.384 450.912 134.041C450.912 134.41 450.836 134.759 450.715 135.085C451.164 134.816 451.684 134.652 452.246 134.652C453.903 134.652 455.246 135.995 455.246 137.652C455.246 138.541 454.852 139.33 454.239 139.88C455.606 140.159 456.635 141.369 456.635 142.819C456.635 143.77 456.184 144.607 455.494 145.156C456.586 145.604 457.357 146.676 457.357 147.93C457.357 149.587 456.014 150.93 454.357 150.93C452.7 150.93 451.357 149.587 451.357 147.93C451.357 146.979 451.808 146.142 452.498 145.593C451.406 145.144 450.635 144.073 450.635 142.819C450.635 141.93 451.029 141.141 451.642 140.591C450.275 140.312 449.246 139.102 449.246 137.652C449.246 137.283 449.322 136.934 449.443 136.608C448.994 136.877 448.474 137.041 447.912 137.041C446.386 137.041 445.14 135.898 444.951 134.424C444.437 134.839 443.791 135.097 443.079 135.097C441.919 135.097 440.925 134.432 440.426 133.469C439.876 134.088 439.084 134.486 438.191 134.486C437.195 134.486 436.32 133.996 435.774 133.249C435.228 133.995 434.353 134.486 433.357 134.486C432.539 134.486 431.8 134.157 431.258 133.626C430.735 134.503 429.786 135.097 428.69 135.097C428.401 135.097 428.127 135.043 427.863 134.967C427.476 136.153 426.381 137.016 425.07 137.037C425.112 137.236 425.134 137.442 425.134 137.653C425.134 139.171 424.003 140.412 422.54 140.612C423.14 141.161 423.523 141.942 423.523 142.82C423.523 144.059 422.771 145.122 421.699 145.58C422.399 146.129 422.856 146.973 422.856 147.931C422.856 149.588 421.513 150.931 419.856 150.931C418.199 150.931 416.856 149.588 416.856 147.931C416.857 146.691 417.609 145.628 418.681 145.17Z" fill="#323244"/>
<path d="M451.237 151.658C450.757 154.62 451.972 157.325 453.951 157.701C455.93 158.077 457.924 155.98 458.404 153.018C458.884 150.056 457.669 147.351 455.69 146.975C453.712 146.599 451.718 148.696 451.237 151.658Z" fill="#A56F62"/>
<path d="M453.33 151.956C453.028 151.898 452.725 151.932 452.434 152.036C452.441 151.987 452.445 151.938 452.453 151.888C452.77 149.932 454.087 148.546 455.395 148.794C456.703 149.042 457.505 150.83 457.188 152.786C456.944 154.29 456.109 155.453 455.141 155.8C455.397 153.902 454.605 152.197 453.33 151.956Z" fill="#8C5C53"/>
<path d="M399.833 237.83L433.083 222.73C436.355 221.244 440.212 222.692 441.698 225.964C443.184 229.236 441.736 233.093 438.464 234.579C438.288 234.659 438.1 234.733 437.922 234.796L403.452 246.853C400.916 247.74 398.14 246.403 397.253 243.867C396.416 241.475 397.575 238.864 399.833 237.83Z" fill="#A56F62"/>
<path d="M461.894 192.916L441.517 231.959C439.777 235.294 435.663 236.586 432.328 234.846C428.993 233.106 427.701 228.992 429.441 225.657C429.451 225.638 429.479 225.586 429.489 225.567L450.446 186.832C452.15 183.683 456.083 182.512 459.232 184.215C462.35 185.902 463.527 189.782 461.894 192.916Z" fill="#A56F62"/>
<path d="M402.569 237.343C402.302 237.075 401.918 236.961 401.545 237.025C398.835 237.491 387.74 239.406 387.591 239.518C387.421 239.646 384.316 247.471 384.571 247.514C384.826 247.556 401.882 247.514 401.882 247.514C401.882 247.514 409.219 244.014 402.569 237.343Z" fill="#A56F62"/>
<path d="M395.48 244.218C396.606 245.365 397.674 244.928 398.176 244.601L398.478 244.369C398.478 244.369 400.498 245.324 400.53 245.475C400.534 245.496 400.511 245.568 400.477 245.659C400.855 246.457 401.486 246.98 402.218 247.329C402.011 247.451 401.88 247.514 401.88 247.514C401.88 247.514 400.582 247.517 398.7 247.521L399.732 245.627C399.732 245.627 399.541 245.216 398.208 244.679C397.931 244.965 397.469 245.354 396.965 245.415C397.384 245.694 397.638 246.43 397.638 246.43C397.319 245.74 396.149 245.269 395.543 246.539C395.872 245.799 396.178 245.458 396.449 245.351C396.111 245.216 395.775 244.879 395.48 244.218Z" fill="#8C5C53"/>
<path d="M387.413 247.532L388.505 241.825L386.864 247.531C387.04 247.532 387.222 247.532 387.413 247.532Z" fill="#8C5C53"/>
<path d="M392.096 247.532C392.279 247.532 392.461 247.532 392.645 247.531L393.737 241.826L392.096 247.532Z" fill="#8C5C53"/>
<path d="M391.121 241.826L389.48 247.533C389.66 247.533 389.844 247.533 390.029 247.533L391.121 241.826Z" fill="#8C5C53"/>
<path d="M448.103 187.002L431.031 219.421L445.837 227.119L462.624 194.569C464.717 190.51 463.085 185.523 458.996 183.488C455.012 181.505 450.176 183.065 448.103 187.002Z" fill="#C4314A"/>
<path d="M330.3 244.469L393.121 244.453L380.005 200.287H320.727C318.99 200.287 317.741 201.958 318.233 203.624L330.3 244.469Z" fill="#646489"/>
<path d="M330.306 247.591H422.178V244.453H330.306V247.591Z" fill="#575770"/>
<path d="M330.306 247.591H393.121V244.453H330.306V247.591Z" fill="#575770"/>
<path d="M380.005 200.287H382.389L395.694 244.594L393.121 244.453L380.005 200.287Z" fill="#575770"/>
<path d="M347.373 226.444C348.256 229.154 350.852 230.739 353.173 229.983C355.494 229.227 356.659 226.418 355.777 223.707C354.894 220.996 352.298 219.412 349.977 220.167C347.657 220.924 346.491 223.734 347.373 226.444Z" fill="#8484B7"/>
<path d="M385.25 60.104H423.717C428.845 60.104 433.002 64.261 433.002 69.389V88.622C433.002 93.526 429.197 97.532 424.38 97.874V108.298L413.989 97.908H385.249C380.121 97.908 375.964 93.751 375.964 88.623V69.39C375.965 64.262 380.122 60.104 385.25 60.104Z" fill="#70AEE5"/>
<path d="M413.929 78.5961C414.728 73.67 411.383 69.0286 406.457 68.2291C401.531 67.4296 396.89 70.7749 396.09 75.701C395.291 80.627 398.636 85.2685 403.562 86.068C408.488 86.8674 413.13 83.5222 413.929 78.5961Z" fill="#FFBF31"/>
<path d="M405.292 91.113H404.707C402.474 91.113 400.663 89.302 400.663 87.069V81.595H409.336V87.069C409.336 89.302 407.525 91.113 405.292 91.113Z" fill="#FFBF31"/>
<path d="M412.101 68.206L415.562 64.745" stroke="white" stroke-miterlimit="10"/>
<path d="M411.01 63.074V65.919" stroke="white" stroke-miterlimit="10"/>
<path d="M417.434 69.414H414.588" stroke="white" stroke-miterlimit="10"/>
<path d="M403.876 91.113V75.926C403.876 75.402 403.451 74.977 402.928 74.977C402.404 74.977 401.98 75.402 401.98 75.926V76.203C401.98 76.727 402.405 77.152 402.928 77.152H405.31" stroke="#3E3D5E" stroke-miterlimit="10"/>
<path d="M406.123 91.113V75.926C406.123 75.402 406.548 74.977 407.072 74.977C407.596 74.977 408.02 75.402 408.02 75.926V76.203C408.02 76.727 407.595 77.152 407.072 77.152H404.69" stroke="#3E3D5E" stroke-miterlimit="10"/>
<path d="M408.534 92.192H401.504C400.385 92.192 399.478 91.285 399.478 90.166V89.777C399.478 88.658 400.385 87.751 401.504 87.751H408.534C409.653 87.751 410.56 88.658 410.56 89.777V90.166C410.56 91.285 409.653 92.192 408.534 92.192Z" fill="#DCE8FF"/>
<path d="M406.797 94.013H403.202C402.197 94.013 401.381 93.198 401.381 92.192C401.381 91.186 402.196 90.371 403.202 90.371H406.797C407.802 90.371 408.618 91.186 408.618 92.192C408.618 93.198 407.802 94.013 406.797 94.013Z" fill="#DCE8FF"/>
<path d="M425.53 260.335L413.445 258.658L432.656 406.553H438.108L425.53 260.335Z" fill="#A0B8E8"/>
<path d="M55.8971 260.335L67.9821 258.658L48.7711 406.553H43.3191L55.8971 260.335Z" fill="#A0B8E8"/>
<path d="M439.896 258.658H42.0439V269.33H439.896V258.658Z" fill="#D9E6FF"/>
<path d="M439.896 258.658H42.0439V262.193H439.896V258.658Z" fill="#A0B8E8"/>
<path d="M451.085 259.111H30.856V252.213C30.856 249.628 32.951 247.533 35.536 247.533H446.404C448.989 247.533 451.084 249.628 451.084 252.213L451.085 259.111Z" fill="#E8A060"/>
<path d="M451.085 254.935H30.856V259.111H451.085V254.935Z" fill="#AD7B55"/>
<path d="M29.467 415.549H34.918L54.129 267.654L42.044 269.33L29.467 415.549Z" fill="#D9E6FF"/>
<path d="M439.935 269.33L427.85 267.654L447.061 415.549H452.512L439.935 269.33Z" fill="#D9E6FF"/>
</svg>
