<svg width="83" height="82" viewBox="0 0 83 82" fill="none" xmlns="http://www.w3.org/2000/svg">
<path d="M42.2592 13.9591C42.0125 13.877 41.7557 13.9585 41.4991 13.958C41.243 13.9574 40.9874 13.8747 40.7414 13.9569L11.9116 23.5683V28.1241L40.739 37.7333C40.9853 37.8154 41.2433 37.8575 41.4991 37.8575C41.7549 37.8575 42.0129 37.8153 42.2592 37.7333L71.0866 28.1241V23.5683L42.2592 13.9591Z" fill="#D36E00"/>
<path d="M71.0875 28.1238V23.568L42.2601 13.9588C42.0134 13.8767 41.7566 13.9582 41.5 13.9577V37.8574C41.7558 37.8574 42.0138 37.8151 42.2601 37.7331L71.0875 28.1238Z" fill="#FF9100"/>
<path d="M41.5002 33.8525H10.2705V69.2469C10.2705 70.2815 10.9321 71.1989 11.9127 71.5249L40.7401 81.1341C40.9864 81.2162 41.2444 81.2584 41.5002 81.2584C41.7559 81.2584 42.014 81.2161 42.2603 81.1341L71.0877 71.5249C72.0683 71.1989 72.7299 70.2815 72.7299 69.2469V33.8525H41.5002Z" fill="#FED330"/>
<path d="M71.0875 71.5248C72.0681 71.1987 72.7297 70.2814 72.7297 69.2468V33.8525H41.5V81.2584C41.7558 81.2584 42.0138 81.2161 42.2601 81.1341L71.0875 71.5248Z" fill="#FDB500"/>
<path d="M47.5063 0.541611C45.1737 0.541611 43.1146 1.44391 41.5006 3.16202C39.8866 1.44391 37.8275 0.541611 35.4949 0.541611C30.7802 0.541611 27.0869 4.24017 27.0869 8.96177C27.0869 13.9548 31.2062 17.1641 36.9071 21.6059C37.8953 22.3758 38.9169 23.1718 40 24.0382C40.4386 24.3891 40.9697 24.5646 41.5006 24.5646C42.0315 24.5646 42.5626 24.3891 43.0012 24.0382C44.0843 23.1718 45.106 22.3758 46.0941 21.6059C51.7952 17.1641 55.9143 13.9548 55.9143 8.96177C55.9143 4.24017 52.221 0.541611 47.5063 0.541611Z" fill="#FF5E95"/>
<path d="M43.0006 24.0382C44.0837 23.1718 45.1053 22.3758 46.0935 21.6059C51.7946 17.1641 55.9137 13.955 55.9137 8.96177C55.9137 4.24017 52.2204 0.541611 47.5057 0.541611C45.1731 0.541611 43.114 1.44391 41.5 3.16202V24.5644C42.0309 24.5646 42.562 24.3892 43.0006 24.0382Z" fill="#E63950"/>
<path d="M82.0956 38.927L72.3263 24.5133C71.7233 23.6101 70.5903 23.2137 69.5674 23.5679L41.5001 32.9237L13.4329 23.5679C12.403 23.2161 11.2723 23.6102 10.674 24.5133L0.904692 38.927C0.0185703 40.2587 0.657257 42.0469 2.14331 42.5375L31.1309 52.1466C32.151 52.4897 33.2859 52.1067 33.8898 51.2012L41.5002 39.7858L49.1107 51.2012C49.7151 52.1077 50.8506 52.4895 51.8696 52.1466L80.8571 42.5375C82.3458 42.046 82.9798 40.2558 82.0956 38.927Z" fill="#FFE470"/>
<path d="M51.8694 52.1466L80.8569 42.5375C82.3457 42.046 82.9797 40.2558 82.0955 38.927L72.3263 24.5133C71.7233 23.6101 70.5902 23.2137 69.5673 23.5679L41.5 32.9237V39.7858L49.1104 51.2012C49.7148 52.1077 50.8503 52.4895 51.8694 52.1466Z" fill="#FED330"/>
</svg>
