<svg width="76" height="76" viewBox="0 0 76 76" fill="none" xmlns="http://www.w3.org/2000/svg">
<g clip-path="url(#clip0_141_623)">
<path d="M38.1465 0.399902C17.5364 0.399902 0.5 17.1431 0.5 37.7534C0.5 58.3638 17.5364 75.3999 38.1465 75.3999C58.7565 75.3999 75.5 58.3638 75.5 37.7534C75.5 17.1431 58.7565 0.399902 38.1465 0.399902Z" fill="#FFD931"/>
<path d="M75.5 37.7534C75.5 58.3638 58.7565 75.3999 38.1465 75.3999V0.399902C58.7565 0.399902 75.5 17.1431 75.5 37.7534Z" fill="#FFCC33"/>
<path d="M38.1465 9.18896C22.4138 9.18896 9.28906 22.0208 9.28906 37.7534C9.28906 53.486 22.4138 66.6108 38.1465 66.6108C53.8792 66.6108 66.7109 53.486 66.7109 37.7534C66.7109 22.0208 53.8792 9.18896 38.1465 9.18896Z" fill="#FF7827"/>
<path d="M66.7109 37.7534C66.7109 53.486 53.8792 66.6108 38.1465 66.6108V9.18896C53.8792 9.18896 66.7109 22.0208 66.7109 37.7534Z" fill="#FE9923"/>
<path d="M42.541 35.5562H40.3438V26.7671H42.541C43.7716 26.7671 44.7383 27.7337 44.7383 28.9644C44.7383 31.8646 49.1328 31.8646 49.1328 28.9644C49.1328 25.3167 46.1888 22.3726 42.541 22.3726H40.3438V20.1753C40.3438 18.725 39.2451 17.978 38.1465 17.978C37.0479 17.978 35.9492 18.725 35.9492 20.1753V22.3726H33.459C29.8112 22.3726 26.8672 25.3167 26.8672 28.9644V33.3589C26.8672 37.0065 29.8112 39.9507 33.459 39.9507H35.9492V49.0327H33.459C32.2284 49.0327 31.2617 48.0661 31.2617 46.8354C31.2617 43.9352 26.8672 43.9352 26.8672 46.8354C26.8672 50.4831 29.8112 53.4272 33.459 53.4272H35.9492V55.6245C35.9492 57.0749 37.0479 57.8218 38.1465 57.8218C39.2451 57.8218 40.3438 57.0749 40.3438 55.6245V53.4272H42.541C46.1888 53.4272 49.1328 50.4831 49.1328 46.8354V42.1479C49.1328 38.5003 46.1888 35.5562 42.541 35.5562ZM35.9492 35.5562H33.459C32.2284 35.5562 31.2617 34.5895 31.2617 33.3589V28.9644C31.2617 27.7337 32.2284 26.7671 33.459 26.7671H35.9492V35.5562ZM44.7383 46.8354C44.7383 48.0661 43.7716 49.0327 42.541 49.0327H40.3438V39.9507H42.541C43.7716 39.9507 44.7383 40.9173 44.7383 42.1479V46.8354Z" fill="#FFD931"/>
<path d="M42.541 35.5562H40.3438V26.7671H42.541C43.7716 26.7671 44.7383 27.7337 44.7383 28.9644C44.7383 31.8646 49.1328 31.8646 49.1328 28.9644C49.1328 25.3167 46.1888 22.3726 42.541 22.3726H40.3438V20.1753C40.3438 18.725 39.2451 17.978 38.1465 17.978V57.8218C39.2451 57.8218 40.3438 57.0749 40.3438 55.6245V53.4272H42.541C46.1888 53.4272 49.1328 50.4831 49.1328 46.8354V42.1479C49.1328 38.5003 46.1888 35.5562 42.541 35.5562ZM44.7383 46.8354C44.7383 48.0661 43.7716 49.0327 42.541 49.0327H40.3438V39.9507H42.541C43.7716 39.9507 44.7383 40.9173 44.7383 42.1479V46.8354Z" fill="#FFCC33"/>
</g>
<defs>
<clipPath id="clip0_141_623">
<rect width="75" height="75" fill="white" transform="translate(0.5 0.399902)"/>
</clipPath>
</defs>
</svg>
