<svg width="83" height="83" viewBox="0 0 83 83" fill="none" xmlns="http://www.w3.org/2000/svg">
<path d="M16.2713 11.1499H66.7321C68.3038 11.1499 69.6158 11.6772 70.6681 12.7318C71.7204 13.7864 72.2477 15.0984 72.25 16.6678V50.0487C72.25 51.6203 71.7227 52.9323 70.6681 53.9847C69.6135 55.037 68.3015 55.5643 66.7321 55.5666H51.4869V65.6526C51.4869 66.7004 51.0553 67.4964 50.192 68.0408C49.3287 68.5852 48.437 68.6171 47.5168 68.1365L42.7095 65.7961C42.3405 65.6002 41.9373 65.5023 41.5 65.5023C41.0627 65.5023 40.6595 65.6002 40.2905 65.7961L35.4798 68.1365C34.5619 68.6194 33.6713 68.5875 32.808 68.0408C31.9447 67.4942 31.5131 66.6981 31.5131 65.6526V55.5666H16.2713C14.6974 55.5666 13.3843 55.0404 12.3319 53.9881C11.2796 52.9357 10.7523 51.6226 10.75 50.0487V16.6678C10.75 15.0962 11.2773 13.783 12.3319 12.7284C13.3865 11.6738 14.6985 11.1476 16.2679 11.1499M14.1667 43.8713H68.8333V36.5118H14.1667V43.8713Z" fill="#FED330"/>
</svg>
