<svg width="64" height="59" viewBox="0 0 64 59" fill="none" xmlns="http://www.w3.org/2000/svg">
<path d="M33.3954 26.5734C33.3954 26.5734 35.3229 26.544 37.024 22.6453C37.5283 21.4894 37.6795 20.4052 36.9515 20.2964C35.487 20.0778 35.2892 25.6416 30.5668 24.4197C27.2347 24.7587 30.2311 25.7473 30.4681 25.8104C30.7052 25.8735 32.28 27.1004 32.28 27.1004L33.3954 26.5734Z" fill="white"/>
<path d="M29.7676 24.3642C29.7676 24.3642 31.6898 24.2187 33.1526 20.2241C33.5862 19.0398 33.5276 18.4115 32.7944 18.3469C31.3194 18.217 31.6017 23.3196 26.8142 22.3848C23.5087 22.9242 26.5592 23.7301 26.7995 23.7789C27.04 23.8278 28.6857 24.9573 28.6857 24.9573L29.7676 24.3642Z" fill="white"/>
<path d="M35.5112 26.7293C35.5112 26.7293 36.7952 27.1644 38.2824 25.3137C39.0723 24.3307 39.2769 23.2021 38.5746 22.9819C37.1616 22.5389 35.7658 26.3703 32.4215 26.1891C29.0771 26.0078 31.0908 27.3258 31.3154 27.4251C31.54 27.5244 34.0931 27.7494 34.0931 27.7494L35.5112 26.7293Z" fill="white"/>
<path d="M30.6682 24.4448C30.6682 24.4448 31.092 25.7986 33.406 26.4968C35.7201 27.195 37.553 25.168 38.8926 25.5734C40.2322 25.9788 38.7868 28.2408 35.7318 29.0162C32.6768 29.7917 28.6581 28.5932 26.1671 26.6427C23.9911 24.9389 21.3851 24.6661 21.8601 26.9506C20.4374 27.3574 19.9629 25.0446 19.9629 24.9389C19.9629 24.8333 19.9629 23.3878 19.9629 23.3878L22.0075 22.295L24.9333 22.7534L28.6346 23.9769L30.6682 24.4448Z" fill="white"/>
<path d="M30.6681 24.4449C30.7345 24.3693 30.8682 24.3019 31.0989 24.2653C31.7723 24.1582 33.3494 23.995 33.775 23.4886C34.0962 23.1065 34.0492 22.4412 32.803 22.1269C31.5568 21.8127 29.5817 22.0548 28.8091 21.6521C28.232 21.3515 26.7864 20.3903 25.4972 19.7336C25.0602 19.5109 23.8021 18.5946 21.7634 19.0454C19.0881 19.3954 18.273 18.5196 18.256 17.151L16.8972 19.6627L17.7789 23.2696C17.7789 23.2696 19.5865 24.336 19.9107 25.1795C20.5564 25.1341 21.3656 26.8389 21.8601 26.9507C21.0485 24.7759 22.3726 23.2473 25.2504 23.977C29.7968 25.1296 30.6677 24.4453 30.6681 24.4449Z" fill="white"/>
<path d="M30.6045 8.74414C30.6045 8.74414 28.677 8.77357 26.9759 12.6723C26.4716 13.8282 26.3204 14.9124 27.0484 15.0211C28.5129 15.2397 28.7107 9.67591 33.4331 10.8978C36.7651 10.5588 33.7688 9.57026 33.5317 9.50713C33.2947 9.44399 31.7199 8.21716 31.7199 8.21716L30.6045 8.74414Z" fill="#FF7827"/>
<path d="M34.2322 10.9534C34.2322 10.9534 32.3101 11.0989 30.8472 15.0934C30.4136 16.2777 30.4723 16.9061 31.2054 16.9706C32.6805 17.1006 32.3981 11.998 37.1857 12.9328C40.4912 12.3934 37.4407 11.5875 37.2004 11.5386C36.9601 11.4898 35.3142 10.3602 35.3142 10.3602L34.2322 10.9534Z" fill="#FF7827"/>
<path d="M28.4888 8.58827C28.4888 8.58827 27.2047 8.15325 25.7176 10.0039C24.9276 10.987 24.7231 12.1155 25.4254 12.3358C26.8384 12.7788 28.2342 8.94729 31.5785 9.12853C34.9229 9.30978 32.9091 7.99182 32.6846 7.89252C32.4602 7.79341 29.9069 7.56824 29.9069 7.56824L28.4888 8.58827Z" fill="#FF7827"/>
<path d="M33.3317 10.8727C33.3317 10.8727 32.9079 9.51898 30.5938 8.82077C28.2797 8.12256 26.4468 10.1496 25.1072 9.74415C23.7676 9.33875 25.213 7.07677 28.2681 6.30133C31.3231 5.52588 35.3417 6.7243 37.8327 8.67487C40.0087 10.3786 42.6148 10.6514 42.1397 8.36694C41.6646 6.08248 44.0369 10.273 44.0369 10.3786C44.0369 10.4843 44.0369 11.9297 44.0369 11.9297L41.9924 13.0225L39.0665 12.5642L35.3652 11.3406L33.3317 10.8727Z" fill="#FF7827"/>
<path d="M33.3316 10.8727C33.2652 10.9483 33.1315 11.0157 32.9008 11.0523C32.2273 11.1594 30.6503 11.3226 30.2247 11.829C29.9034 12.2111 29.9504 12.8764 31.1967 13.1907C32.4429 13.5049 34.418 13.2628 35.1906 13.6655C35.7676 13.9661 37.2133 14.9273 38.5024 15.584C38.9395 15.8068 40.1976 16.723 42.2362 16.2722C44.9116 15.9222 45.9106 16.8313 45.7436 18.1666C46.0217 19.7672 47.1025 15.6549 47.1025 15.6549L46.2208 12.048C46.2208 12.048 44.4132 10.9816 44.0889 10.1381C43.4432 10.1835 42.6341 8.47871 42.1396 8.36694C42.9512 10.5417 41.6271 12.0703 38.7493 11.3406C34.203 10.188 33.3322 10.8723 33.3316 10.8727Z" fill="#FF7827"/>
<path d="M30.7728 34.489C30.7728 32.81 29.6788 31.3179 28.0695 30.839C22.3892 29.1483 18.2467 23.8885 18.2467 17.6588C18.2467 11.4293 22.3892 6.1695 28.0695 4.47864C29.6788 3.99968 30.7728 2.50763 30.7728 0.828613C22.0242 1.45796 15.1206 8.74983 15.1206 17.6588C15.1206 26.5678 22.024 33.8596 30.7728 34.489Z" fill="white"/>
<path d="M33.2273 0.828613C33.2273 2.50763 34.3213 3.99968 35.9306 4.47864C41.6109 6.1693 45.7534 11.4291 45.7534 17.6588C45.7534 23.8885 41.6109 29.1481 35.9306 30.839C34.3213 31.3179 33.2273 32.81 33.2273 34.489C41.9759 33.8596 48.8795 26.5678 48.8795 17.6588C48.8795 8.74983 41.9759 1.45796 33.2273 0.828613Z" fill="#FF7827"/>
<path d="M2.57362 55.15C2.39489 55.15 2.22213 55.1322 2.05532 55.0964C1.88851 55.0726 1.72766 55.0368 1.57277 54.9892C1.62043 54.1671 1.65617 53.4105 1.68 52.7194C1.71574 52.0283 1.73362 51.3849 1.73362 50.7892C1.73362 49.5024 1.69192 48.4479 1.60851 47.6258C1.53702 46.7917 1.42383 46.1305 1.26894 45.642C1.12596 45.1415 0.959149 44.7543 0.768511 44.4802C0.577872 44.2062 0.375319 43.9858 0.160851 43.819C0.351489 43.5568 0.643404 43.3245 1.0366 43.122C1.42979 42.9194 1.84681 42.8181 2.28766 42.8181C2.96681 42.8181 3.49106 43.0326 3.86043 43.4615C4.22979 43.8785 4.48596 44.4683 4.62894 45.2309C4.78383 45.9934 4.85532 46.8871 4.8434 47.9117C4.8434 48.6743 4.8017 49.4845 4.7183 50.3424C4.64681 51.1883 4.56936 52.0462 4.48596 52.916H4.5217C4.98638 52.6896 5.42128 52.3739 5.82638 51.9688C6.2434 51.5637 6.61872 51.1049 6.95234 50.5926C7.28596 50.0683 7.57192 49.5202 7.81021 48.9483C8.04851 48.3764 8.23319 47.8045 8.36426 47.2326C8.49532 46.6488 8.56681 46.1007 8.57872 45.5883C8.57872 44.9926 8.50723 44.4683 8.36426 44.0156C8.23319 43.5628 8.02468 43.1756 7.73872 42.8539C7.86979 42.5083 8.09617 42.2402 8.41787 42.0496C8.73958 41.8471 9.06723 41.7458 9.40085 41.7458C9.96085 41.7458 10.366 41.9483 10.6162 42.3534C10.8664 42.7466 10.9915 43.2828 10.9915 43.962C10.9915 44.6054 10.8843 45.3322 10.6698 46.1424C10.4553 46.9407 10.1515 47.7628 9.7583 48.6088C9.37702 49.4428 8.92426 50.2471 8.4 51.0215C7.87575 51.796 7.29787 52.493 6.66638 53.1126C6.03489 53.7322 5.37362 54.2266 4.68255 54.596C3.99149 54.9654 3.28851 55.15 2.57362 55.15ZM13.4082 55.3288C12.872 55.3288 12.4073 55.2394 12.0141 55.0607C11.6209 54.882 11.3171 54.6139 11.1026 54.2564C10.8882 53.8871 10.7809 53.4283 10.7809 52.8802C10.7809 52.5824 10.8226 52.1594 10.906 51.6113C10.9894 51.0632 11.1145 50.3245 11.2814 49.3951C11.4482 48.4658 11.6686 47.2862 11.9426 45.8564L15.106 45.5347C14.8677 46.8096 14.6592 47.882 14.4805 48.7517C14.3137 49.6096 14.1767 50.3185 14.0694 50.8785C13.9741 51.4266 13.9026 51.8794 13.855 52.2368C13.8073 52.5824 13.7835 52.8743 13.7835 53.1126C13.7835 53.2913 13.8014 53.4641 13.8371 53.6309C13.8728 53.7977 13.9443 53.9347 14.0516 54.042C14.1707 54.1492 14.3375 54.2028 14.552 54.2028C14.8975 54.2028 15.1835 54.0777 15.4099 53.8275C15.6363 53.5773 15.815 53.2675 15.946 52.8981C16.089 52.5168 16.1903 52.1534 16.2499 51.8079L17.3222 45.8564L20.5035 45.5347L19.1809 52.5049C19.169 52.6122 19.1511 52.7373 19.1273 52.8802C19.1035 53.0232 19.0916 53.1483 19.0916 53.2556C19.0916 53.47 19.1511 53.6666 19.2703 53.8454C19.3894 54.0122 19.5801 54.1015 19.8422 54.1134C19.7707 54.3994 19.6218 54.6317 19.3954 54.8105C19.1809 54.9892 18.9307 55.1202 18.6448 55.2037C18.3707 55.2871 18.0967 55.3288 17.8226 55.3288C17.4414 55.3288 17.0958 55.2454 16.786 55.0785C16.4763 54.9117 16.2737 54.6556 16.1784 54.31C15.8805 54.6437 15.4754 54.8939 14.9631 55.0607C14.4626 55.2394 13.9443 55.3288 13.4082 55.3288ZM23.0024 55.3288C22.4662 55.3288 22.0254 55.1917 21.6798 54.9177C21.3343 54.6317 21.1616 54.2088 21.1616 53.6488C21.1616 53.4105 21.1854 53.1066 21.233 52.7373C21.2926 52.3679 21.3641 51.9628 21.4475 51.522C21.5309 51.0692 21.6262 50.5926 21.7335 50.0922C21.8407 49.5917 21.9479 49.0913 22.0552 48.5909C22.1624 48.0905 22.2637 47.6079 22.359 47.1432C22.4662 46.6666 22.5556 46.2317 22.6271 45.8385C22.7581 45.1594 22.8535 44.5696 22.913 44.0692C22.9845 43.5688 23.0203 43.1458 23.0203 42.8002C23.0203 42.6215 23.0084 42.4607 22.9845 42.3177C22.9726 42.1628 22.9488 42.0317 22.913 41.9245C23.1513 41.7934 23.4194 41.6922 23.7173 41.6207C24.0271 41.5373 24.325 41.4956 24.6109 41.4956C25.0279 41.4956 25.3973 41.6028 25.719 41.8173C26.0407 42.0198 26.2016 42.3892 26.2016 42.9254C26.2016 43.0564 26.1837 43.253 26.1479 43.5151C26.1241 43.7654 26.0824 44.0573 26.0228 44.3909C25.9752 44.7245 25.9096 45.0879 25.8262 45.4811C25.7547 45.8624 25.6773 46.2556 25.5939 46.6607C25.3437 47.876 25.1352 48.8709 24.9684 49.6454C24.8135 50.4198 24.6884 51.0394 24.593 51.5041C24.5096 51.9568 24.4441 52.2964 24.3964 52.5228C24.3607 52.7492 24.3369 52.91 24.325 53.0054C24.313 53.1007 24.3071 53.1841 24.3071 53.2556C24.3071 53.47 24.3667 53.6666 24.4858 53.8454C24.605 54.0122 24.7956 54.1015 25.0577 54.1134C24.9862 54.3994 24.8373 54.6317 24.6109 54.8105C24.3964 54.9892 24.1462 55.1202 23.8603 55.2037C23.5862 55.2871 23.3003 55.3288 23.0024 55.3288ZM26.2559 58.3671C25.7674 58.3671 25.3622 58.2837 25.0405 58.1168C24.7188 57.962 24.4984 57.7356 24.3793 57.4377C24.7248 57.3185 25.0227 57.1696 25.2729 56.9909C25.5112 56.8122 25.7257 56.556 25.9163 56.2224C26.095 55.8888 26.2618 55.43 26.4167 54.8462C26.5835 54.2624 26.7563 53.5117 26.935 52.5943L28.1146 46.4283H31.2601L30.0269 52.8088C29.7648 54.1313 29.4788 55.1977 29.1691 56.0079C28.8593 56.83 28.472 57.4258 28.0074 57.7951C27.5427 58.1764 26.9588 58.3671 26.2559 58.3671ZM26.8099 46.6607L26.9708 45.8564H28.2218L28.472 44.8198C28.6508 44.1049 28.9486 43.5509 29.3657 43.1577C29.7827 42.7645 30.2831 42.4905 30.8669 42.3356C31.4508 42.1807 32.0703 42.1032 32.7257 42.1032C33.0593 42.1032 33.3988 42.1271 33.7444 42.1747C34.1018 42.2105 34.4295 42.282 34.7274 42.3892C35.0252 42.4964 35.2635 42.6513 35.4422 42.8539C35.6329 43.0445 35.7282 43.2888 35.7282 43.5866C35.7282 44.0037 35.5554 44.3134 35.2099 44.516C34.8763 44.7185 34.501 44.8198 34.084 44.8198C33.9171 44.8198 33.7444 44.8079 33.5657 44.7841C33.3988 44.7483 33.244 44.6888 33.101 44.6054C33.1844 44.4624 33.244 44.2956 33.2797 44.1049C33.3274 43.9024 33.3512 43.7237 33.3512 43.5688C33.3512 43.3662 33.3095 43.2054 33.2261 43.0862C33.1427 42.9551 32.9937 42.8896 32.7793 42.8896C32.4337 42.8896 32.1657 43.0564 31.975 43.39C31.7963 43.7237 31.6652 44.1407 31.5818 44.6411L31.3674 45.8564H32.9759L32.8686 46.6607H26.8099ZM35.1203 55.3288C34.5841 55.3288 34.1194 55.2394 33.7262 55.0607C33.333 54.882 33.0292 54.6139 32.8147 54.2564C32.6003 53.8871 32.493 53.4283 32.493 52.8802C32.493 52.5824 32.5347 52.1594 32.6181 51.6113C32.7015 51.0632 32.8267 50.3245 32.9935 49.3951C33.1603 48.4658 33.3807 47.2862 33.6547 45.8564L36.8181 45.5347C36.5798 46.8096 36.3713 47.882 36.1926 48.7517C36.0258 49.6096 35.8888 50.3185 35.7815 50.8785C35.6862 51.4266 35.6147 51.8794 35.5671 52.2368C35.5194 52.5824 35.4956 52.8743 35.4956 53.1126C35.4956 53.2913 35.5135 53.4641 35.5492 53.6309C35.5849 53.7977 35.6564 53.9347 35.7637 54.042C35.8828 54.1492 36.0496 54.2028 36.2641 54.2028C36.6096 54.2028 36.8956 54.0777 37.122 53.8275C37.3484 53.5773 37.5271 53.2675 37.6581 52.8981C37.8011 52.5168 37.9024 52.1534 37.962 51.8079L39.0343 45.8564L42.2156 45.5347L40.893 52.5049C40.8811 52.6122 40.8632 52.7373 40.8394 52.8802C40.8156 53.0232 40.8037 53.1483 40.8037 53.2556C40.8037 53.47 40.8632 53.6666 40.9824 53.8454C41.1015 54.0122 41.2922 54.1015 41.5543 54.1134C41.4828 54.3994 41.3339 54.6317 41.1075 54.8105C40.893 54.9892 40.6428 55.1202 40.3569 55.2037C40.0828 55.2871 39.8088 55.3288 39.5347 55.3288C39.1535 55.3288 38.8079 55.2454 38.4981 55.0785C38.1884 54.9117 37.9858 54.6556 37.8905 54.31C37.5926 54.6437 37.1875 54.8939 36.6752 55.0607C36.1747 55.2394 35.6564 55.3288 35.1203 55.3288ZM50.2013 55.3288C49.6532 55.3288 49.2064 55.1917 48.8609 54.9177C48.5154 54.6317 48.3426 54.1968 48.3426 53.613C48.3426 53.3509 48.3783 53.0232 48.4498 52.63C48.5332 52.2368 48.6226 51.8198 48.7179 51.379C48.8251 50.9381 48.9264 50.4973 49.0217 50.0564C49.129 49.6156 49.2183 49.2045 49.2898 48.8232C49.3613 48.43 49.3971 48.1024 49.3971 47.8402C49.3971 47.5662 49.3434 47.3398 49.2362 47.1611C49.129 46.9705 48.9383 46.8751 48.6643 46.8751C48.3068 46.8751 48.009 47.0241 47.7707 47.322C47.5324 47.6198 47.3358 47.9832 47.1809 48.4122C47.0379 48.8411 46.9247 49.2581 46.8413 49.6632L45.8226 54.9713L42.6234 55.293L44.4822 45.8564L47.0915 45.5347L46.8234 47.2505C47.1451 46.6309 47.586 46.1841 48.146 45.91C48.7179 45.636 49.3434 45.499 50.0226 45.499C50.7971 45.499 51.4047 45.6658 51.8456 45.9994C52.2864 46.333 52.5068 46.8692 52.5068 47.6079C52.5068 47.9177 52.4711 48.2692 52.3996 48.6624C52.3281 49.0556 52.2388 49.4726 52.1315 49.9134C52.0362 50.3424 51.9409 50.7654 51.8456 51.1824C51.7502 51.5875 51.6668 51.9688 51.5954 52.3262C51.5239 52.6717 51.4881 52.9637 51.4881 53.202C51.4881 53.4522 51.5417 53.6607 51.649 53.8275C51.7681 53.9943 51.9707 54.0896 52.2566 54.1134C52.1256 54.5305 51.8575 54.8343 51.4524 55.0249C51.0592 55.2275 50.6422 55.3288 50.2013 55.3288ZM56.1866 55.3288C55.5313 55.3288 54.9951 55.1858 54.5781 54.8998C54.1611 54.602 53.8513 54.1968 53.6487 53.6845C53.4581 53.1602 53.3628 52.5466 53.3628 51.8437C53.3628 50.95 53.4938 50.122 53.756 49.3594C54.03 48.5849 54.4053 47.9117 54.8819 47.3398C55.3704 46.756 55.9364 46.3032 56.5798 45.9815C57.2351 45.6598 57.9381 45.499 58.6887 45.499C58.9747 45.499 59.2547 45.5168 59.5287 45.5526C59.8147 45.5883 60.0589 45.6539 60.2615 45.7492L63.0496 46.3032C62.8708 47.2564 62.6802 48.2513 62.4777 49.2879C62.287 50.3245 62.0666 51.3968 61.8164 52.5049C61.8045 52.6122 61.7866 52.7373 61.7628 52.8802C61.7389 53.0232 61.727 53.1483 61.727 53.2556C61.727 53.47 61.7866 53.6666 61.9057 53.8454C62.0368 54.0122 62.2394 54.1015 62.5134 54.1134C62.4181 54.3994 62.2632 54.6317 62.0487 54.8105C61.8343 54.9892 61.584 55.1202 61.2981 55.2037C61.024 55.2871 60.744 55.3288 60.4581 55.3288C60.0887 55.3288 59.7491 55.2454 59.4394 55.0785C59.1296 54.9117 58.9211 54.6556 58.8138 54.31C58.504 54.6198 58.1287 54.8641 57.6879 55.0428C57.247 55.2334 56.7466 55.3288 56.1866 55.3288ZM57.2232 54.2028C57.5806 54.2028 57.8666 54.0777 58.0811 53.8275C58.3074 53.5654 58.4862 53.2496 58.6172 52.8802C58.7483 52.5109 58.8436 52.1534 58.9032 51.8079L59.7611 46.9466C59.5823 46.8156 59.3977 46.7202 59.207 46.6607C59.0283 46.6011 58.8674 46.5713 58.7245 46.5713C58.3789 46.5713 58.0751 46.7083 57.813 46.9824C57.5508 47.2564 57.3245 47.6258 57.1338 48.0905C56.9551 48.5432 56.8062 49.0437 56.687 49.5917C56.5798 50.1279 56.5023 50.676 56.4547 51.236C56.407 51.7841 56.3832 52.2845 56.3832 52.7373C56.3832 53.1066 56.4368 53.4462 56.544 53.756C56.6513 54.0539 56.8777 54.2028 57.2232 54.2028ZM63.0138 46.4998L59.9577 46.3032C60.0768 45.6717 60.1781 45.076 60.2615 44.516C60.3449 43.9441 60.3985 43.4258 60.4223 42.9611C60.4223 42.7705 60.4164 42.5917 60.4045 42.4249C60.4045 42.2581 60.3926 42.0913 60.3687 41.9245C60.5832 41.7934 60.8394 41.6922 61.1372 41.6207C61.447 41.5373 61.7568 41.4956 62.0666 41.4956C62.4836 41.4956 62.847 41.6028 63.1568 41.8173C63.4666 42.0317 63.6155 42.4249 63.6036 42.9968C63.6036 43.1637 63.5738 43.4198 63.5143 43.7654C63.4666 44.1109 63.4011 44.516 63.3177 44.9807C63.2343 45.4454 63.133 45.9517 63.0138 46.4998Z" fill="#FF7827"/>
</svg>
